<svg width="48.076538" height="47.995392" viewBox="0 0 48.0765 47.9954" fill="none" xmlns="http://www.w3.org/2000/svg" xmlns:xlink="http://www.w3.org/1999/xlink">
	<desc>
			Created with Pixso.
	</desc>
	<defs/>
	<g opacity="0.900000">
		<rect id="cake" rx="0.000000" width="46.795528" height="46.795506" transform="translate(0.599943 0.599943)" fill="#FFFFFF" fill-opacity="0"/>
		<path id="Vector" d="M4.8 9.64C4.8 12.26 6.95 14.39 9.6 14.39C12.24 14.39 14.39 12.26 14.39 9.64C14.39 7.31 10.73 1.07 10.31 0.37C10.01 -0.13 9.18 -0.13 8.88 0.37C8.46 1.07 4.8 7.31 4.8 9.64ZM6.86 10.24Q6.8 9.95 6.8 9.64Q6.8 9.47 6.89 9.1Q7.01 8.64 7.25 8.02Q7.68 6.87 8.47 5.29Q8.98 4.27 9.6 3.16Q10.21 4.27 10.72 5.29Q11.51 6.87 11.95 8.02Q12.18 8.64 12.3 9.1Q12.39 9.47 12.39 9.64Q12.39 9.95 12.33 10.24Q12.27 10.48 12.18 10.7Q12.09 10.9 11.98 11.08Q11.81 11.35 11.58 11.58Q11.38 11.78 11.14 11.94Q10.93 12.07 10.69 12.18Q10.47 12.27 10.25 12.32Q9.93 12.39 9.6 12.39Q9.26 12.39 8.94 12.32Q8.72 12.26 8.5 12.18Q8.26 12.07 8.05 11.93Q7.81 11.78 7.61 11.58Q7.38 11.35 7.21 11.08Q7.1 10.9 7.01 10.7Q6.92 10.48 6.86 10.24Z" fill="#B01736" fill-opacity="1.000000" fill-rule="evenodd"/>
		<path id="Rectangle 9048" d="M7.2 12.95C5.87 12.95 4.8 14.02 4.8 15.35L4.8 28.4L6.8 28.4L12.39 28.4L14.39 28.4L14.39 15.35C14.39 14.02 13.32 12.95 12 12.95L7.2 12.95ZM12.39 26.4L12.39 15.35Q12.39 15.27 12.37 15.2Q12.34 15.13 12.28 15.07Q12.22 15.01 12.15 14.98Q12.08 14.95 12 14.95L7.2 14.95Q7.11 14.95 7.04 14.98Q6.97 15.01 6.91 15.07Q6.85 15.13 6.83 15.2Q6.8 15.27 6.8 15.35L6.8 26.4L12.39 26.4Z" fill="#B01736" fill-opacity="1.000000" fill-rule="evenodd"/>
		<path id="Rectangle 9049" d="M21.59 12.95C20.27 12.95 19.19 14.02 19.19 15.35L19.19 28.4L21.19 28.4L26.79 28.4L28.79 28.4L28.79 15.35C28.79 14.02 27.72 12.95 26.39 12.95L21.59 12.95ZM26.79 26.4L26.79 15.35Q26.79 15.27 26.76 15.2Q26.73 15.13 26.68 15.07Q26.62 15.01 26.55 14.98Q26.48 14.95 26.39 14.95L21.59 14.95Q21.51 14.95 21.44 14.98Q21.37 15.01 21.31 15.07Q21.25 15.13 21.22 15.2Q21.19 15.27 21.19 15.35L21.19 26.4L26.79 26.4Z" fill="#B01736" fill-opacity="1.000000" fill-rule="evenodd"/>
		<path id="Vector" d="M23.99 14.39C21.35 14.39 19.19 12.26 19.19 9.64C19.19 7.31 22.86 1.07 23.28 0.37C23.58 -0.13 24.41 -0.13 24.71 0.37C25.13 1.07 28.79 7.31 28.79 9.64C28.79 12.26 26.64 14.39 23.99 14.39ZM21.26 10.24Q21.19 9.95 21.19 9.64Q21.19 9.47 21.29 9.1Q21.41 8.64 21.64 8.02Q22.08 6.87 22.87 5.29Q23.38 4.27 23.99 3.16Q24.61 4.27 25.12 5.29Q25.91 6.87 26.34 8.02Q26.58 8.64 26.7 9.1Q26.79 9.47 26.79 9.64Q26.79 9.95 26.73 10.25Q26.67 10.48 26.58 10.7Q26.49 10.9 26.38 11.08Q26.21 11.35 25.98 11.58Q25.78 11.78 25.54 11.93Q25.33 12.07 25.09 12.18Q24.87 12.27 24.65 12.32Q24.33 12.39 23.99 12.39Q23.66 12.39 23.34 12.32Q23.12 12.26 22.9 12.18Q22.66 12.07 22.45 11.93Q22.21 11.78 22.01 11.58Q21.78 11.35 21.61 11.08Q21.5 10.9 21.41 10.7Q21.32 10.48 21.26 10.24Z" fill="#B01736" fill-opacity="1.000000" fill-rule="evenodd"/>
		<path id="Rectangle 9050" d="M35.99 12.95C34.67 12.95 33.59 14.02 33.59 15.35L33.59 28.4L35.59 28.4L41.19 28.4L43.19 28.4L43.19 15.35C43.19 14.02 42.12 12.95 40.79 12.95L35.99 12.95ZM41.19 26.4L41.19 15.35Q41.19 15.27 41.16 15.2Q41.13 15.13 41.08 15.07Q41.02 15.01 40.95 14.98Q40.88 14.95 40.79 14.95L35.99 14.95Q35.91 14.95 35.84 14.98Q35.77 15.01 35.71 15.07Q35.65 15.13 35.62 15.2Q35.59 15.27 35.59 15.35L35.59 26.4L41.19 26.4Z" fill="#B01736" fill-opacity="1.000000" fill-rule="evenodd"/>
		<path id="Vector" d="M33.59 9.64C33.59 12.26 35.75 14.39 38.39 14.39C41.04 14.39 43.19 12.26 43.19 9.64C43.19 7.31 39.52 1.07 39.11 0.37C38.81 -0.13 37.98 -0.13 37.68 0.37C37.26 1.07 33.59 7.31 33.59 9.64ZM35.66 10.24Q35.59 9.95 35.59 9.64Q35.59 9.47 35.69 9.1Q35.81 8.64 36.04 8.02Q36.48 6.87 37.27 5.29Q37.78 4.27 38.39 3.16Q39.01 4.27 39.52 5.29Q40.31 6.87 40.74 8.02Q40.98 8.64 41.1 9.1Q41.19 9.47 41.19 9.64Q41.19 9.95 41.13 10.24Q41.07 10.48 40.98 10.7Q40.89 10.9 40.78 11.08Q40.61 11.35 40.38 11.58Q40.17 11.78 39.94 11.94Q39.72 12.07 39.49 12.18Q39.27 12.27 39.05 12.32Q38.73 12.39 38.39 12.39Q38.06 12.39 37.74 12.32Q37.51 12.26 37.3 12.18Q37.06 12.07 36.85 11.93Q36.61 11.78 36.41 11.58Q36.18 11.35 36.01 11.08Q35.89 10.9 35.81 10.7Q35.71 10.48 35.66 10.24Z" fill="#B01736" fill-opacity="1.000000" fill-rule="evenodd"/>
		<path id="Vector" d="M48.07 37.27L45.99 38.88Q45.46 39.29 44.79 39.5Q44.16 39.7 43.48 39.7Q42.8 39.7 42.17 39.5Q41.5 39.29 40.97 38.88L38.89 37.27Q38.86 37.25 38.81 37.24Q38.73 37.21 38.63 37.21Q38.54 37.21 38.46 37.24Q38.4 37.25 38.38 37.27L36.3 38.88Q35.77 39.29 35.1 39.5Q34.47 39.7 33.79 39.7Q33.11 39.7 32.48 39.5Q31.8 39.29 31.28 38.88L29.19 37.27Q29.17 37.25 29.12 37.24Q29.04 37.21 28.94 37.21Q28.84 37.21 28.76 37.24Q28.71 37.25 28.68 37.27L26.6 38.88Q26.08 39.29 25.42 39.5Q24.79 39.7 24.09 39.7Q23.4 39.7 22.76 39.5Q22.1 39.29 21.58 38.88L19.5 37.27Q19.48 37.25 19.42 37.24Q19.34 37.21 19.24 37.21Q19.15 37.21 19.07 37.24Q19.01 37.25 18.99 37.27L16.91 38.88Q16.38 39.29 15.71 39.5Q15.08 39.7 14.4 39.7Q13.72 39.7 13.09 39.5Q12.41 39.29 11.89 38.88L9.81 37.27Q9.78 37.25 9.73 37.24Q9.65 37.21 9.55 37.21Q9.46 37.21 9.38 37.24Q9.32 37.25 9.3 37.27L7.21 38.88Q6.7 39.29 6.01 39.49Q5.39 39.68 4.7 39.68Q4.02 39.68 3.39 39.49Q2.71 39.29 2.19 38.88L0.11 37.27L1.34 35.69L3.42 37.3Q3.65 37.48 3.97 37.58Q4.32 37.68 4.7 37.68Q5.09 37.68 5.43 37.58Q5.76 37.48 5.99 37.3L8.07 35.69Q8.39 35.44 8.8 35.32Q9.16 35.21 9.55 35.21Q9.94 35.21 10.31 35.32Q10.71 35.44 11.03 35.69L13.11 37.3Q13.36 37.49 13.69 37.6Q14.03 37.7 14.4 37.7Q14.77 37.7 15.11 37.6Q15.44 37.49 15.68 37.3L17.77 35.69Q18.08 35.44 18.49 35.32Q18.85 35.21 19.24 35.21Q19.64 35.21 20 35.32Q20.41 35.44 20.72 35.69L22.81 37.3Q23.05 37.49 23.37 37.59Q23.71 37.7 24.09 37.7Q24.47 37.7 24.81 37.59Q25.14 37.49 25.38 37.3L27.46 35.69Q27.78 35.44 28.18 35.32Q28.55 35.21 28.94 35.21Q29.33 35.21 29.7 35.32Q30.1 35.44 30.42 35.69L32.5 37.3Q32.74 37.49 33.08 37.6Q33.41 37.7 33.79 37.7Q34.16 37.7 34.5 37.6Q34.83 37.49 35.07 37.3L37.15 35.69Q37.47 35.44 37.88 35.32Q38.24 35.21 38.63 35.21Q39.02 35.21 39.39 35.32Q39.8 35.44 40.11 35.69L42.19 37.3Q42.44 37.49 42.77 37.6Q43.11 37.7 43.48 37.7Q43.85 37.7 44.19 37.6Q44.52 37.49 44.76 37.3L46.85 35.69L48.07 37.27Z" fill="#B01736" fill-opacity="1.000000" fill-rule="evenodd"/>
		<rect id="Rectangle 9051" x="1.000000" y="27.472656" rx="4.799541" width="45.995415" height="19.522650" stroke="#B01736" stroke-opacity="1.000000" stroke-width="2.000000"/>
	</g>
</svg>
