<svg width="48.000000" height="48.000000" viewBox="0 0 48 48" fill="none" xmlns="http://www.w3.org/2000/svg" xmlns:xlink="http://www.w3.org/1999/xlink">
	<desc>
			Created with Pixso.
	</desc>
	<defs>
		<clipPath id="clip8370_249">
			<rect id="gantelya" rx="0.000000" width="47.000000" height="47.000000" transform="translate(0.500000 0.500000)" fill="white" fill-opacity="0"/>
		</clipPath>
	</defs>
	<g opacity="0.900000">
		<rect id="gantelya" rx="0.000000" width="47.000000" height="47.000000" transform="translate(0.500000 0.500000)" fill="#FFFFFF" fill-opacity="0"/>
		<g clip-path="url(#clip8370_249)">
			<path id="Vector" d="M1.7 28.93L2.44 28.19C3.03 27.6 3.78 27.29 4.55 27.25L2.02 24.73C1.4 24.1 1.08 23.28 1.08 22.46L1.08 22.45L1.08 22.45C1.08 21.62 1.4 20.8 2.02 20.17L3.42 18.78C4.04 18.15 4.87 17.84 5.69 17.84C6.52 17.83 7.34 18.15 7.97 18.78L14.8 25.6L25.6 14.8L18.78 7.97C18.15 7.35 17.84 6.52 17.84 5.7L17.84 5.7L17.84 5.69L17.84 5.69C17.84 4.86 18.15 4.04 18.78 3.42L20.17 2.02C20.8 1.39 21.63 1.08 22.45 1.08C23.27 1.08 24.1 1.39 24.73 2.02L27.25 4.55C27.29 3.78 27.6 3.03 28.18 2.45L28.93 1.7C29.56 1.07 30.38 0.76 31.21 0.76C32.03 0.76 32.85 1.07 33.48 1.7L36.71 4.93L37.47 5.69L42.3 10.52L43.06 11.28L46.29 14.51C46.92 15.13 47.23 15.96 47.23 16.79L47.23 16.79C47.23 17.61 46.92 18.44 46.29 19.06L45.55 19.81C44.96 20.39 44.21 20.7 43.45 20.74L45.97 23.27C46.6 23.89 46.91 24.72 46.91 25.54L46.91 25.54C46.91 26.37 46.59 27.19 45.97 27.82L44.57 29.22C43.94 29.84 43.12 30.16 42.29 30.16C41.47 30.16 40.65 29.84 40.02 29.22L33.68 22.87L22.87 33.68L29.22 40.02C29.84 40.65 30.16 41.47 30.16 42.3L30.15 42.3C30.16 43.12 29.84 43.95 29.21 44.57L27.82 45.97C27.19 46.6 26.37 46.91 25.54 46.91C24.72 46.91 23.89 46.6 23.27 45.97L20.74 43.45C20.7 44.21 20.39 44.96 19.81 45.55L19.06 46.29C18.44 46.92 17.61 47.23 16.79 47.23C15.96 47.23 15.14 46.92 14.51 46.29L11.28 43.06L10.52 42.3L5.69 37.47L4.93 36.71L1.7 33.48C1.08 32.86 0.76 32.04 0.76 31.21L0.76 31.21L0.76 31.21L0.76 31.2C0.76 30.38 1.08 29.55 1.7 28.93ZM2.78 20.93L4.18 19.54C4.6 19.12 5.15 18.91 5.69 18.91C6.25 18.91 6.8 19.12 7.21 19.54L28.46 40.78C28.88 41.2 29.08 41.75 29.09 42.29L29.08 42.3C29.08 42.85 28.87 43.39 28.45 43.81L27.06 45.21C26.64 45.63 26.09 45.84 25.54 45.84C24.99 45.84 24.44 45.63 24.02 45.21L2.78 23.97C2.36 23.55 2.15 23 2.15 22.45L2.15 22.45C2.15 21.9 2.36 21.35 2.78 20.93ZM2.46 29.69L3.2 28.94C3.62 28.53 4.17 28.32 4.72 28.32C5.27 28.32 5.82 28.53 6.24 28.94L19.05 41.75C19.47 42.17 19.67 42.72 19.68 43.27L19.67 43.27C19.67 43.82 19.46 44.37 19.05 44.79L18.3 45.53C17.89 45.95 17.34 46.16 16.79 46.16C16.24 46.16 15.69 45.95 15.27 45.53L2.46 32.72C2.04 32.3 1.83 31.75 1.83 31.21L1.83 31.2C1.83 30.65 2.04 30.11 2.46 29.69ZM28.94 3.2L29.69 2.46C30.11 2.04 30.66 1.83 31.21 1.83C31.76 1.83 32.31 2.04 32.72 2.46L45.53 15.27C45.95 15.68 46.16 16.23 46.16 16.78L46.16 16.79C46.16 17.33 45.95 17.89 45.53 18.3L44.79 19.05C44.37 19.46 43.82 19.67 43.27 19.67C42.72 19.67 42.17 19.46 41.75 19.05L28.95 6.24C28.53 5.82 28.32 5.27 28.32 4.72L28.32 4.72C28.32 4.17 28.53 3.62 28.94 3.2ZM19.54 4.18L20.93 2.78C21.35 2.36 21.9 2.15 22.45 2.15C23 2.15 23.55 2.36 23.97 2.78L41 19.81L45.21 24.02C45.63 24.44 45.84 24.99 45.84 25.54L45.84 25.54C45.84 26.09 45.63 26.64 45.21 27.06L43.81 28.45C43.4 28.87 42.85 29.08 42.3 29.08C41.75 29.08 41.2 28.87 40.78 28.46L19.54 7.21C19.12 6.79 18.91 6.24 18.91 5.7L18.91 5.69C18.91 5.14 19.12 4.59 19.54 4.18ZM15.73 26.18L21.05 20.87L26.36 15.55L32.92 22.11L22.29 32.74L15.73 26.18Z" fill="#B01736" fill-opacity="1.000000" fill-rule="evenodd"/>
			<path id="Vector" d="M2.75 27.43Q2.43 27.63 2.16 27.9L1.42 28.65Q1.15 28.91 0.95 29.22Q0.76 29.51 0.63 29.84Q0.51 30.14 0.44 30.45Q0.38 30.74 0.37 31.04L0.19 31.21L0.37 31.38Q0.38 31.68 0.44 31.98Q0.51 32.28 0.63 32.57Q0.76 32.9 0.95 33.19Q1.15 33.5 1.42 33.76L4.65 37L5.41 37.76L10.24 42.58L10.99 43.34L14.23 46.58Q14.49 46.84 14.8 47.04Q15.09 47.23 15.43 47.37Q15.72 47.49 16.03 47.55Q16.4 47.63 16.79 47.63Q17.16 47.63 17.52 47.56Q17.84 47.49 18.15 47.37Q18.48 47.24 18.77 47.05Q19.08 46.84 19.35 46.57L20.09 45.83Q20.36 45.56 20.56 45.25Q20.72 45 20.84 44.73Q20.94 44.51 21.01 44.28L22.98 46.25Q23.26 46.53 23.58 46.73Q23.86 46.92 24.18 47.05Q24.48 47.17 24.8 47.23Q25.16 47.31 25.54 47.31Q25.92 47.31 26.27 47.24Q26.6 47.17 26.9 47.05Q27.22 46.92 27.5 46.74Q27.82 46.53 28.1 46.25L29.5 44.86Q29.77 44.58 29.98 44.26Q30.16 43.98 30.29 43.66Q30.42 43.35 30.48 43.02Q30.54 42.75 30.55 42.47L30.56 42.46L30.56 42.3Q30.56 41.9 30.48 41.53Q30.41 41.23 30.29 40.93Q30.16 40.62 29.98 40.34Q29.78 40.01 29.5 39.74L23.44 33.68L33.68 23.44L39.74 29.5Q40.02 29.78 40.35 29.99Q40.63 30.17 40.93 30.29Q41.24 30.42 41.56 30.48Q41.92 30.56 42.29 30.56Q42.68 30.56 43.06 30.48Q43.36 30.41 43.66 30.29Q43.97 30.17 44.25 29.99Q44.57 29.78 44.85 29.5L46.25 28.1Q46.52 27.83 46.73 27.52Q46.91 27.23 47.04 26.91Q47.16 26.62 47.23 26.32Q47.29 26.02 47.3 25.71L47.31 25.71L47.31 25.54Q47.31 25.15 47.23 24.77Q47.16 24.47 47.05 24.18Q46.92 23.86 46.73 23.57Q46.53 23.26 46.25 22.98L44.28 21.01Q44.5 20.94 44.73 20.84Q45.01 20.72 45.27 20.55Q45.57 20.35 45.83 20.09L46.57 19.35Q46.84 19.08 47.05 18.77Q47.23 18.48 47.37 18.15Q47.49 17.84 47.56 17.51Q47.63 17.16 47.63 16.79L47.63 16.74L47.63 16.74Q47.63 16.39 47.56 16.05Q47.49 15.73 47.37 15.42Q47.23 15.09 47.04 14.8Q46.84 14.49 46.58 14.23L43.34 10.99L42.58 10.23L37.76 5.41L37 4.65L33.76 1.42Q33.49 1.14 33.16 0.93Q32.88 0.75 32.57 0.62Q32.26 0.5 31.95 0.44Q31.58 0.36 31.21 0.36Q30.82 0.36 30.45 0.44Q30.14 0.5 29.84 0.62Q29.53 0.75 29.25 0.93Q28.93 1.14 28.65 1.42L27.9 2.16Q27.65 2.42 27.45 2.71Q27.28 2.97 27.15 3.27Q27.05 3.49 26.99 3.72L25.01 1.74Q24.73 1.46 24.41 1.26Q24.13 1.07 23.81 0.94Q23.5 0.82 23.17 0.75Q22.82 0.68 22.45 0.68Q22.07 0.68 21.71 0.76Q21.39 0.82 21.09 0.94Q20.77 1.07 20.49 1.25Q20.17 1.46 19.89 1.74L18.49 3.13Q18.23 3.4 18.02 3.71Q17.84 4 17.7 4.33Q17.59 4.61 17.52 4.9Q17.46 5.21 17.44 5.53L17.44 5.53L17.44 5.7Q17.44 6.09 17.52 6.46Q17.58 6.77 17.7 7.06Q17.83 7.38 18.02 7.67Q18.22 7.98 18.49 8.25L25.04 14.8L14.8 25.04L8.25 18.49Q7.97 18.21 7.65 18Q7.37 17.83 7.06 17.7Q6.74 17.57 6.41 17.5Q6.06 17.44 5.69 17.44Q5.32 17.44 4.96 17.51Q4.64 17.58 4.33 17.7Q4.02 17.83 3.74 18.01Q3.41 18.22 3.13 18.49L1.74 19.89Q1.47 20.15 1.27 20.46Q1.08 20.75 0.95 21.09Q0.83 21.37 0.77 21.67Q0.68 22.05 0.68 22.45L0.68 22.61L0.69 22.62Q0.7 22.9 0.75 23.17Q0.82 23.5 0.95 23.82Q1.08 24.14 1.26 24.42Q1.47 24.74 1.74 25.01L3.71 26.99Q3.49 27.05 3.27 27.15Q2.99 27.27 2.75 27.43ZM4.18 26.88L4.55 27.25C4.38 27.26 4.21 27.28 4.04 27.32C3.46 27.44 2.9 27.73 2.44 28.19L1.7 28.93C1.08 29.55 0.76 30.38 0.76 31.2L0.76 31.21L0.76 31.21L0.76 31.21C0.76 32.04 1.08 32.86 1.7 33.48L4.93 36.71L5.69 37.47L10.52 42.3L11.28 43.06L14.51 46.29C15.14 46.92 15.96 47.23 16.79 47.23C17.61 47.23 18.44 46.92 19.06 46.29L19.81 45.55C20.26 45.09 20.55 44.53 20.68 43.95C20.71 43.78 20.73 43.61 20.74 43.45L23.27 45.97C23.89 46.6 24.72 46.91 25.54 46.91C26.37 46.91 27.19 46.6 27.82 45.97L29.21 44.57C29.84 43.95 30.16 43.12 30.15 42.3L30.16 42.3C30.16 41.47 29.84 40.65 29.22 40.02L22.87 33.68L33.68 22.87L33.96 23.15L40.02 29.22C40.65 29.84 41.47 30.16 42.29 30.16C43.12 30.16 43.94 29.84 44.57 29.22L45.97 27.82C46.59 27.19 46.91 26.37 46.91 25.54L46.91 25.54C46.91 24.72 46.6 23.89 45.97 23.27L43.45 20.74C43.61 20.73 43.78 20.71 43.95 20.68C44.53 20.55 45.09 20.26 45.55 19.81L46.29 19.06C46.92 18.44 47.23 17.61 47.23 16.79L47.23 16.79C47.23 15.96 46.92 15.13 46.29 14.51L43.06 11.28L42.3 10.52L37.47 5.69L36.71 4.93L33.48 1.7C32.85 1.07 32.03 0.76 31.21 0.76C30.38 0.76 29.56 1.07 28.93 1.7L28.18 2.45C27.73 2.9 27.44 3.46 27.32 4.05C27.28 4.21 27.26 4.38 27.25 4.55L24.73 2.02C24.1 1.39 23.27 1.08 22.45 1.08C21.63 1.08 20.8 1.39 20.17 2.02L18.78 3.42C18.15 4.04 17.84 4.86 17.84 5.69L17.84 5.69L17.84 5.7L17.84 5.7C17.84 6.52 18.15 7.35 18.78 7.97L25.32 14.51L25.6 14.8L14.8 25.6L7.97 18.78C7.34 18.15 6.52 17.83 5.69 17.84C4.87 17.84 4.04 18.15 3.42 18.78L2.02 20.17C1.4 20.8 1.08 21.62 1.08 22.45L1.08 22.45L1.08 22.46C1.08 23.28 1.4 24.1 2.02 24.73L4.18 26.88ZM45.84 25.54L45.84 25.54C45.84 24.99 45.63 24.44 45.21 24.02L41 19.81L23.97 2.78C23.55 2.36 23 2.15 22.45 2.15C21.9 2.15 21.35 2.36 20.93 2.78L19.54 4.18C19.12 4.59 18.91 5.14 18.91 5.69L18.91 5.7C18.91 6.24 19.12 6.79 19.54 7.21L40.78 28.46C41.2 28.87 41.75 29.08 42.3 29.08C42.85 29.08 43.4 28.87 43.81 28.45L45.21 27.06C45.63 26.64 45.84 26.09 45.84 25.54ZM45.44 25.48Q45.43 25.32 45.4 25.17Q45.37 25.03 45.31 24.88Q45.25 24.74 45.17 24.6Q45.07 24.44 44.93 24.31L40.71 20.09L23.69 3.06Q23.56 2.93 23.41 2.84Q23.27 2.75 23.11 2.68Q22.97 2.62 22.82 2.59Q22.64 2.55 22.45 2.55Q22.25 2.55 22.06 2.6Q21.92 2.63 21.79 2.68Q21.64 2.74 21.5 2.83Q21.35 2.93 21.22 3.06L19.82 4.46Q19.68 4.59 19.58 4.75Q19.5 4.88 19.44 5.04Q19.37 5.19 19.34 5.36Q19.31 5.52 19.31 5.69L19.31 5.7Q19.31 5.87 19.34 6.04Q19.37 6.2 19.43 6.35Q19.49 6.5 19.58 6.63Q19.68 6.79 19.82 6.93L41.06 28.17Q41.2 28.31 41.35 28.41Q41.49 28.49 41.64 28.55Q41.76 28.6 41.88 28.63Q42.08 28.68 42.3 28.68Q42.47 28.68 42.64 28.65Q42.8 28.62 42.95 28.55Q43.1 28.49 43.24 28.41Q43.4 28.31 43.53 28.17L44.93 26.77Q45.07 26.63 45.18 26.46Q45.25 26.34 45.31 26.2Q45.37 26.05 45.4 25.9Q45.44 25.73 45.44 25.54L45.44 25.48L45.44 25.48ZM29.08 42.3L29.09 42.29C29.08 41.75 28.88 41.2 28.46 40.78L7.21 19.54C6.8 19.12 6.25 18.91 5.69 18.91C5.15 18.91 4.6 19.12 4.18 19.54L2.78 20.93C2.36 21.35 2.15 21.9 2.15 22.45L2.15 22.45C2.15 23 2.36 23.55 2.78 23.97L24.02 45.21C24.44 45.63 24.99 45.84 25.54 45.84C26.09 45.84 26.64 45.63 27.06 45.21L28.45 43.81C28.87 43.39 29.08 42.85 29.08 42.3ZM2.56 22.36L2.55 22.45Q2.55 22.62 2.58 22.78Q2.62 22.95 2.68 23.11Q2.74 23.25 2.82 23.38Q2.92 23.54 3.06 23.68L24.31 44.93Q24.44 45.06 24.6 45.16Q24.73 45.25 24.88 45.31Q25 45.36 25.13 45.39Q25.33 45.44 25.54 45.44Q25.72 45.44 25.89 45.4Q26.05 45.37 26.2 45.31Q26.35 45.25 26.48 45.16Q26.64 45.06 26.78 44.93L28.17 43.53Q28.32 43.38 28.43 43.2Q28.5 43.08 28.56 42.95Q28.62 42.8 28.65 42.64Q28.68 42.47 28.68 42.3L28.68 42.23L28.68 42.23Q28.68 42.08 28.65 41.93Q28.62 41.78 28.56 41.64Q28.5 41.49 28.42 41.36Q28.31 41.2 28.17 41.06L6.93 19.82Q6.79 19.68 6.63 19.58Q6.5 19.49 6.35 19.44Q6.21 19.38 6.06 19.35Q5.88 19.31 5.7 19.31Q5.49 19.31 5.29 19.35Q5.16 19.38 5.04 19.44Q4.89 19.49 4.76 19.58Q4.6 19.68 4.46 19.82L3.06 21.21Q2.92 21.35 2.82 21.51Q2.74 21.65 2.68 21.79Q2.62 21.93 2.59 22.08Q2.56 22.22 2.56 22.36ZM46.16 16.79L46.16 16.78C46.16 16.23 45.95 15.68 45.53 15.27L32.72 2.46C32.31 2.04 31.76 1.83 31.21 1.83C30.66 1.83 30.11 2.04 29.69 2.46L28.94 3.2C28.53 3.62 28.32 4.17 28.32 4.72L28.32 4.72C28.32 5.27 28.53 5.82 28.95 6.24L41.75 19.05C42.17 19.46 42.72 19.67 43.27 19.67C43.82 19.67 44.37 19.46 44.79 19.05L45.53 18.3C45.95 17.89 46.16 17.33 46.16 16.79ZM28.72 4.68L28.72 4.68L28.72 4.72Q28.72 4.89 28.75 5.06Q28.78 5.22 28.84 5.38Q28.9 5.51 28.97 5.63Q29.08 5.8 29.23 5.95L42.04 18.76Q42.17 18.89 42.32 18.99Q42.46 19.08 42.61 19.15Q42.74 19.2 42.88 19.23Q43.07 19.27 43.27 19.27Q43.44 19.27 43.6 19.24Q43.77 19.21 43.93 19.15Q44.08 19.08 44.22 19Q44.37 18.9 44.51 18.76L45.25 18.02Q45.38 17.89 45.48 17.73Q45.57 17.6 45.63 17.44Q45.69 17.29 45.73 17.13Q45.76 16.96 45.76 16.79L45.76 16.71Q45.75 16.55 45.72 16.4Q45.69 16.26 45.63 16.13Q45.57 15.97 45.48 15.83Q45.38 15.68 45.25 15.55L32.44 2.74Q32.31 2.61 32.16 2.51Q32.02 2.42 31.87 2.36Q31.73 2.3 31.59 2.27Q31.4 2.23 31.21 2.23Q31.02 2.23 30.85 2.27Q30.69 2.3 30.55 2.36Q30.4 2.42 30.27 2.5Q30.11 2.61 29.97 2.74L29.23 3.49Q29.08 3.63 28.98 3.8Q28.9 3.92 28.84 4.06Q28.78 4.22 28.75 4.37Q28.72 4.52 28.72 4.68ZM19.67 43.27L19.68 43.27C19.67 42.72 19.47 42.17 19.05 41.75L6.24 28.94C5.82 28.53 5.27 28.32 4.72 28.32C4.17 28.32 3.62 28.53 3.2 28.94L2.46 29.69C2.04 30.11 1.83 30.65 1.83 31.2L1.83 31.21C1.83 31.75 2.04 32.3 2.46 32.72L15.27 45.53C15.69 45.95 16.24 46.16 16.79 46.16C17.34 46.16 17.89 45.95 18.3 45.53L19.05 44.79C19.46 44.37 19.67 43.82 19.67 43.27ZM2.23 31.23Q2.23 31.39 2.27 31.55Q2.3 31.71 2.36 31.86Q2.42 32.01 2.5 32.14Q2.6 32.3 2.74 32.44L15.55 45.25Q15.69 45.38 15.84 45.48Q15.98 45.57 16.13 45.63Q16.26 45.68 16.39 45.71Q16.58 45.76 16.79 45.76Q16.97 45.76 17.15 45.72Q17.3 45.69 17.44 45.63Q17.6 45.57 17.73 45.48Q17.89 45.38 18.02 45.25L18.76 44.5Q18.9 44.37 19 44.22Q19.08 44.08 19.15 43.93Q19.21 43.78 19.24 43.62Q19.27 43.45 19.27 43.27L19.27 43.2Q19.27 43.04 19.23 42.88Q19.2 42.75 19.15 42.61Q19.08 42.46 18.99 42.32Q18.9 42.17 18.77 42.04L5.96 29.23Q5.82 29.09 5.67 28.99Q5.53 28.91 5.38 28.84Q5.24 28.79 5.1 28.76Q4.91 28.72 4.72 28.72Q4.54 28.72 4.36 28.75Q4.21 28.79 4.06 28.84Q3.92 28.9 3.78 28.99Q3.62 29.09 3.49 29.23L2.74 29.97Q2.6 30.11 2.49 30.28Q2.42 30.41 2.36 30.55Q2.29 30.71 2.26 30.88Q2.23 31.04 2.23 31.2L2.23 31.22L2.23 31.23ZM32.92 22.11L26.36 15.55L15.73 26.18L22.29 32.74L32.92 22.11ZM16.3 26.18L22.29 32.17L32.35 22.11L26.36 16.12L16.3 26.18Z" fill="#B01736" fill-opacity="1.000000" fill-rule="evenodd"/>
		</g>
	</g>
</svg>
