<svg width="67.000000" height="49.006920" viewBox="0 0 67 49.0069" fill="none" xmlns="http://www.w3.org/2000/svg" xmlns:xlink="http://www.w3.org/1999/xlink">
	<desc>
			Created with Pixso.
	</desc>
	<defs/>
	<g opacity="0.900000">
		<path id="hands" d="M51.11 0.5C50.67 0.51 50.25 0.69 49.93 1L44.34 6.58C44.02 6.9 43.84 7.34 43.84 7.79C43.84 8.24 44.02 8.68 44.34 9L44.61 9.26C44.01 9.9 43.23 10.33 42.38 10.51C41.52 10.68 40.64 10.6 39.83 10.26C38.76 9.8 37.58 9.68 36.44 9.9C35.3 10.12 34.25 10.67 33.43 11.49L32.77 12.15C32.02 11.3 31.02 10.71 29.91 10.45C27.53 10.02 25.09 10.03 22.72 10.47C23.32 9.8 23.3 8.77 22.66 8.13L17.06 2.54C16.39 1.88 15.31 1.88 14.64 2.54L1 16.16C0.33 16.83 0.33 17.91 1 18.57L6.59 24.16C7.26 24.82 8.34 24.82 9.01 24.16L9.25 23.91C10.69 25.5 11.83 27.33 12.6 29.33C13.49 30.96 14.75 32.37 16.26 33.46C15.7 34.13 15.44 35 15.55 35.87C15.65 36.74 16.12 37.52 16.83 38.04C17.53 38.55 18.42 38.75 19.28 38.58C19.06 39.3 19.09 40.07 19.39 40.77C19.68 41.46 20.21 42.03 20.89 42.36C21.56 42.7 22.34 42.78 23.07 42.6C22.84 43.49 23.02 44.45 23.56 45.2C24.1 45.95 24.95 46.43 25.87 46.51C26.8 46.59 27.71 46.25 28.36 45.6L28.66 45.3C28.65 46.15 28.98 46.96 29.57 47.56C30.16 48.16 30.96 48.5 31.81 48.5C32.65 48.51 33.46 48.18 34.05 47.58L36.52 45.12C36.62 45.03 36.7 44.93 36.79 44.82C37.42 45.27 38.21 45.46 38.98 45.37C39.75 45.27 40.46 44.9 40.98 44.31C41.49 43.72 41.77 42.97 41.75 42.19L42.18 42.61C42.9 43.33 43.92 43.66 44.93 43.5C45.94 43.33 46.8 42.69 47.25 41.78C47.7 40.87 47.68 39.8 47.2 38.9C48.14 38.97 49.06 38.63 49.72 37.95C50.37 37.28 50.69 36.35 50.59 35.42L54.18 31.84C55.74 30.28 56.69 28.21 56.86 26.01C56.96 24.7 57.18 23.41 57.5 22.13L57.99 22.62C58.65 23.28 59.73 23.28 60.4 22.62L66 17.04C66.66 16.37 66.66 15.29 66 14.63L52.35 1.01C52.02 0.68 51.57 0.5 51.11 0.51L51.11 0.5ZM51.13 1.39C51.35 1.39 51.56 1.48 51.71 1.63L65.36 15.25C65.51 15.4 65.6 15.61 65.6 15.83C65.6 16.04 65.51 16.25 65.36 16.4L59.77 21.98C59.62 22.14 59.41 22.22 59.19 22.22C58.97 22.22 58.77 22.14 58.61 21.98L44.96 8.36C44.64 8.05 44.64 7.53 44.96 7.21L50.56 1.63C50.71 1.48 50.91 1.39 51.13 1.39ZM15.84 2.93C16.06 2.93 16.27 3.01 16.43 3.17L22.02 8.75C22.34 9.07 22.34 9.58 22.02 9.9L8.37 23.52C8.22 23.67 8.01 23.76 7.8 23.76C7.58 23.76 7.37 23.67 7.22 23.52L1.63 17.94C1.47 17.79 1.39 17.58 1.39 17.36C1.39 17.15 1.47 16.94 1.63 16.79L15.28 3.17C15.43 3.02 15.63 2.93 15.84 2.93ZM45.23 9.89L56.77 21.4C56.36 22.88 56.09 24.4 55.97 25.94C55.82 27.93 54.96 29.8 53.55 31.21L50.32 34.43C50.16 34.09 49.95 33.79 49.68 33.52L36.26 20.13C38.11 20.24 39.94 19.75 41.48 18.74C41.67 18.59 41.71 18.34 41.58 18.14C41.46 17.95 41.2 17.88 41 17.99C39.17 19.2 36.91 19.56 34.8 18.99C34.21 18.83 33.58 19 33.15 19.43L26.99 25.57C26.42 26.13 25.59 26.34 24.82 26.13C24.05 25.91 23.44 25.31 23.23 24.54C23.02 23.77 23.23 22.95 23.79 22.37L34.06 12.13C34.75 11.43 35.64 10.96 36.61 10.77C37.58 10.58 38.58 10.69 39.48 11.07C40.45 11.48 41.52 11.59 42.54 11.38C43.57 11.17 44.51 10.65 45.23 9.89ZM27.24 11.05C28.08 11.08 28.91 11.18 29.73 11.32C30.67 11.55 31.51 12.06 32.14 12.78L23.16 21.74C22.37 22.54 22.07 23.69 22.37 24.77C22.66 25.85 23.51 26.69 24.59 26.99C25.67 27.28 26.82 26.98 27.62 26.2L33.78 20.06C33.93 19.91 34.14 19.82 34.36 19.82C34.57 19.82 34.78 19.91 34.93 20.06L49.05 34.15C49.61 34.73 49.83 35.55 49.61 36.32C49.4 37.1 48.8 37.7 48.03 37.91C47.25 38.12 46.43 37.91 45.85 37.35L42.22 33.73C42.04 33.56 41.77 33.57 41.6 33.74C41.43 33.91 41.42 34.18 41.58 34.35L46.02 38.78C46.56 39.36 46.76 40.18 46.55 40.94C46.34 41.7 45.74 42.3 44.97 42.51C44.21 42.72 43.39 42.52 42.81 41.98L36.37 35.55C36.19 35.39 35.92 35.39 35.75 35.56C35.58 35.73 35.58 36 35.74 36.18L40.2 40.63C40.74 41.18 40.96 41.96 40.79 42.71C40.63 43.46 40.09 44.07 39.37 44.34C38.65 44.61 37.85 44.49 37.23 44.04C37.52 43.3 37.52 42.47 37.23 41.73C36.94 40.99 36.37 40.38 35.65 40.04C34.93 39.7 34.11 39.64 33.35 39.88C33.5 39.1 33.36 38.3 32.95 37.62C32.54 36.95 31.89 36.45 31.13 36.23C30.37 36.01 29.55 36.09 28.84 36.44C28.92 35.57 28.64 34.71 28.07 34.06C27.49 33.41 26.67 33.02 25.8 32.99C24.92 32.97 24.08 33.3 23.46 33.91L22.69 34.69C22.7 33.85 22.37 33.04 21.78 32.44C21.19 31.84 20.39 31.5 19.55 31.49C18.7 31.49 17.89 31.82 17.3 32.41L16.9 32.81C15.46 31.81 14.27 30.49 13.41 28.95C12.6 26.86 11.4 24.94 9.89 23.28L21.55 11.64C23.41 11.16 25.33 10.96 27.25 11.05L27.24 11.05ZM19.42 32.38C20.04 32.35 20.63 32.58 21.08 33C21.53 33.42 21.78 34 21.79 34.61C21.8 35.22 21.56 35.81 21.13 36.24L20.29 37.08C19.71 37.62 18.89 37.82 18.13 37.61C17.37 37.39 16.77 36.8 16.56 36.04C16.34 35.28 16.54 34.46 17.08 33.88L17.92 33.04C18.32 32.64 18.86 32.41 19.42 32.38ZM25.73 33.92C26.31 33.94 26.87 34.18 27.28 34.6C27.69 35.02 27.92 35.58 27.92 36.17C27.93 36.75 27.7 37.32 27.3 37.74L23.9 41.14C23.32 41.68 22.5 41.87 21.74 41.66C20.98 41.45 20.38 40.85 20.17 40.09C19.96 39.33 20.16 38.52 20.7 37.94L24.09 34.54C24.53 34.13 25.12 33.9 25.73 33.92ZM30.29 37.03C30.88 37.05 31.44 37.3 31.84 37.72C32.25 38.14 32.48 38.7 32.48 39.29C32.48 39.88 32.26 40.44 31.85 40.86L29.59 43.12L27.74 44.97C27.16 45.54 26.33 45.76 25.55 45.55C24.76 45.34 24.15 44.73 23.94 43.95C23.73 43.17 23.95 42.34 24.53 41.76L28.65 37.66C29.09 37.24 29.68 37.01 30.29 37.03ZM34.32 40.66C34.91 40.68 35.46 40.93 35.87 41.35C36.28 41.77 36.51 42.33 36.51 42.91C36.52 43.5 36.29 44.06 35.89 44.49L33.43 46.95C32.85 47.51 32.02 47.73 31.24 47.52C30.46 47.31 29.85 46.7 29.64 45.93C29.43 45.15 29.65 44.32 30.22 43.75L32.68 41.29C33.12 40.87 33.71 40.64 34.32 40.66Z" fill="#B01736" fill-opacity="1.000000" fill-rule="nonzero"/>
		<path id="hands" d="M50.28 0.17Q49.9 0.33 49.58 0.65L49.58 0.65L43.98 6.23Q43.66 6.55 43.5 6.94Q43.34 7.33 43.34 7.79Q43.34 8.24 43.5 8.63Q43.63 8.97 43.89 9.25Q43.64 9.46 43.36 9.62Q42.86 9.89 42.27 10.02Q41.7 10.14 41.14 10.08Q40.58 10.03 40.03 9.79Q39.14 9.42 38.22 9.32Q37.3 9.22 36.34 9.41Q35.39 9.59 34.57 10.03Q33.76 10.46 33.07 11.14L32.78 11.44Q32.3 10.98 31.75 10.65Q30.96 10.18 30.02 9.96L30.01 9.96L30 9.96Q28.13 9.62 26.26 9.63Q24.97 9.64 23.69 9.81Q23.77 9.54 23.77 9.27Q23.75 8.51 23.01 7.77L17.41 2.19Q16.63 1.41 15.85 1.41Q15.07 1.41 14.29 2.19L0.64 15.81Q0.32 16.13 0.16 16.52Q0 16.91 0 17.37Q0 17.82 0.16 18.21Q0.32 18.6 0.64 18.92L6.24 24.51Q7.02 25.29 7.8 25.29Q8.51 25.29 9.22 24.64Q10.07 25.63 10.75 26.73Q11.56 28.04 12.13 29.51L12.14 29.54L12.16 29.57Q12.87 30.86 13.82 31.93Q14.61 32.82 15.57 33.56Q15.3 33.99 15.16 34.45Q14.95 35.15 15.05 35.93Q15.15 36.72 15.52 37.34Q15.89 37.97 16.53 38.44Q17.17 38.91 17.89 39.06Q18.26 39.15 18.65 39.15Q18.62 39.43 18.63 39.72Q18.66 40.35 18.93 40.96Q19.19 41.58 19.62 42.05Q20.06 42.51 20.67 42.81Q21.27 43.11 21.9 43.18Q22.18 43.21 22.47 43.19Q22.44 43.63 22.52 44.05Q22.66 44.8 23.16 45.49Q23.65 46.18 24.31 46.56Q24.98 46.94 25.83 47.01Q26.68 47.08 27.4 46.81Q27.87 46.64 28.29 46.33Q28.34 46.52 28.41 46.71Q28.67 47.36 29.21 47.91Q29.74 48.45 30.39 48.72Q31.04 49 31.8 49Q32.57 49.01 33.22 48.74Q33.87 48.47 34.41 47.94L36.87 45.48Q36.88 45.47 36.88 45.47Q37.28 45.68 37.71 45.79Q38.34 45.95 39.04 45.86Q39.73 45.78 40.31 45.47Q40.89 45.17 41.35 44.64Q41.82 44.11 42.04 43.49Q42.09 43.37 42.12 43.24Q42.66 43.68 43.28 43.88Q44.08 44.14 45.01 43.99Q45.94 43.84 46.62 43.34Q47.28 42.84 47.7 42Q48.11 41.16 48.1 40.33Q48.09 39.86 47.95 39.39Q48.37 39.34 48.75 39.19Q49.48 38.92 50.08 38.3Q50.68 37.69 50.93 36.95Q51.15 36.32 51.11 35.61L54.53 32.2Q55.81 30.92 56.52 29.37Q57.22 27.84 57.36 26.05Q57.44 25.03 57.61 24.02Q57.69 23.56 57.78 23.11Q58.49 23.75 59.19 23.75Q59.97 23.75 60.75 22.97L66.35 17.39Q66.67 17.07 66.83 16.68Q67 16.29 67 15.83Q67 15.38 66.83 14.99Q66.67 14.6 66.35 14.27L52.7 0.65Q52.37 0.33 51.98 0.16Q51.79 0.09 51.58 0.05L51.58 0L51.11 0Q50.66 0.01 50.28 0.17ZM51.11 0.51L51.11 0.5C51.05 0.5 50.99 0.51 50.94 0.51C50.83 0.53 50.72 0.55 50.62 0.58C50.36 0.67 50.13 0.81 49.93 1L44.34 6.58C44.02 6.9 43.84 7.34 43.84 7.79C43.84 8.24 44.02 8.68 44.34 9L44.61 9.26C44.56 9.31 44.52 9.36 44.47 9.41C44.4 9.47 44.32 9.54 44.24 9.61C43.71 10.05 43.07 10.36 42.38 10.51C41.52 10.68 40.64 10.6 39.83 10.26C38.76 9.8 37.58 9.68 36.44 9.9C35.3 10.12 34.25 10.67 33.43 11.49L33.13 11.8L32.77 12.15C32.66 12.02 32.54 11.91 32.42 11.79C31.72 11.13 30.85 10.67 29.91 10.45C27.77 10.07 25.58 10.03 23.44 10.35C23.2 10.38 22.96 10.42 22.72 10.47C22.87 10.3 22.98 10.11 23.05 9.9C23.27 9.3 23.13 8.6 22.66 8.13L17.06 2.54C16.39 1.88 15.31 1.88 14.64 2.54L1 16.16C0.33 16.83 0.33 17.91 1 18.57L6.59 24.16C7.22 24.78 8.22 24.82 8.89 24.26C8.93 24.23 8.97 24.19 9.01 24.16L9.25 23.91C9.36 24.04 9.47 24.16 9.58 24.29C10.87 25.78 11.89 27.49 12.6 29.33C13.41 30.82 14.53 32.12 15.86 33.16C15.99 33.26 16.13 33.36 16.26 33.46C16.16 33.59 16.06 33.72 15.98 33.86C15.62 34.46 15.46 35.17 15.55 35.87C15.65 36.74 16.12 37.52 16.83 38.04C17.39 38.44 18.06 38.65 18.75 38.64C18.93 38.63 19.11 38.62 19.28 38.58C19.23 38.75 19.19 38.93 19.17 39.11C19.09 39.67 19.16 40.24 19.39 40.77C19.68 41.46 20.21 42.03 20.89 42.36C21.4 42.62 21.97 42.73 22.54 42.68C22.72 42.67 22.89 42.64 23.07 42.6C23.03 42.77 23 42.95 22.98 43.13C22.93 43.86 23.13 44.59 23.56 45.2C24.1 45.95 24.95 46.43 25.87 46.51C26.71 46.58 27.55 46.31 28.18 45.77C28.25 45.71 28.31 45.66 28.36 45.6L28.66 45.3C28.66 45.52 28.68 45.74 28.72 45.95C28.84 46.55 29.13 47.11 29.57 47.56C30.16 48.16 30.96 48.5 31.81 48.5C32.65 48.51 33.46 48.18 34.05 47.58L36.52 45.12C36.62 45.03 36.7 44.93 36.79 44.82L36.79 44.82C37.42 45.27 38.21 45.46 38.98 45.37C39.75 45.27 40.46 44.9 40.98 44.31C41.35 43.89 41.59 43.38 41.7 42.84C41.74 42.63 41.76 42.41 41.75 42.19L42.18 42.61C42.2 42.63 42.22 42.65 42.23 42.66C42.95 43.35 43.95 43.66 44.93 43.5C45.94 43.33 46.8 42.69 47.25 41.78C47.62 41.04 47.67 40.19 47.42 39.41C47.36 39.24 47.29 39.07 47.2 38.9C47.39 38.92 47.58 38.91 47.76 38.9C48.5 38.82 49.19 38.49 49.72 37.95C50.37 37.28 50.69 36.35 50.59 35.42L54.18 31.84C55.74 30.28 56.69 28.21 56.86 26.01C56.95 24.9 57.12 23.79 57.36 22.7C57.4 22.51 57.45 22.32 57.5 22.13L57.91 22.54L57.99 22.62C58.65 23.28 59.73 23.28 60.4 22.62L66 17.04C66.66 16.37 66.66 15.29 66 14.63L52.35 1.01C52.02 0.68 51.57 0.5 51.11 0.51ZM36.37 35.55L42.81 41.98C43.39 42.52 44.21 42.72 44.97 42.51C45.74 42.3 46.34 41.7 46.55 40.94C46.76 40.18 46.56 39.36 46.02 38.78L41.58 34.35C41.42 34.18 41.43 33.91 41.6 33.74C41.77 33.57 42.04 33.56 42.22 33.73L45.85 37.35C46.43 37.91 47.25 38.12 48.03 37.91C48.8 37.7 49.4 37.1 49.61 36.32C49.83 35.55 49.61 34.73 49.05 34.15L34.93 20.06C34.78 19.91 34.57 19.82 34.36 19.82C34.14 19.82 33.93 19.91 33.78 20.06L27.62 26.2C26.82 26.98 25.67 27.28 24.59 26.99C23.51 26.69 22.66 25.85 22.37 24.77C22.07 23.69 22.37 22.54 23.16 21.74L32.14 12.78C31.51 12.06 30.67 11.55 29.73 11.32C28.92 11.18 28.09 11.09 27.26 11.05C27.26 11.05 27.25 11.05 27.25 11.05L27.24 11.05L27.25 11.05L27.24 11.05C27.24 11.05 27.23 11.04 27.23 11.04C25.32 10.96 23.4 11.16 21.55 11.64L9.89 23.28C11.4 24.94 12.6 26.86 13.41 28.95C14.27 30.49 15.46 31.81 16.9 32.81L17.3 32.41C17.89 31.82 18.7 31.49 19.55 31.49C20.39 31.5 21.19 31.84 21.78 32.44C22.22 32.88 22.51 33.44 22.63 34.04C22.67 34.25 22.69 34.47 22.69 34.69L23.16 34.21L23.46 33.91C24.08 33.3 24.92 32.97 25.8 32.99C26.67 33.02 27.49 33.41 28.07 34.06C28.52 34.57 28.79 35.21 28.85 35.89C28.86 36.07 28.86 36.25 28.84 36.44C29.01 36.36 29.18 36.29 29.36 36.24C29.93 36.07 30.55 36.07 31.13 36.23C31.89 36.45 32.54 36.95 32.95 37.62C33.26 38.14 33.42 38.74 33.41 39.34C33.4 39.52 33.38 39.7 33.35 39.88C33.52 39.82 33.7 39.79 33.87 39.76C34.48 39.68 35.1 39.78 35.65 40.04C36.37 40.38 36.94 40.99 37.23 41.73C37.52 42.47 37.52 43.3 37.23 44.04C37.85 44.49 38.65 44.61 39.37 44.34C40.09 44.07 40.63 43.46 40.79 42.71C40.96 41.96 40.74 41.18 40.2 40.63L35.74 36.18C35.58 36 35.58 35.73 35.75 35.56C35.92 35.39 36.19 35.39 36.37 35.55ZM37.83 43.82Q38.07 43.94 38.33 43.98Q38.75 44.04 39.2 43.87Q39.65 43.7 39.93 43.38Q40.2 43.06 40.3 42.6Q40.41 42.13 40.29 41.73Q40.18 41.33 39.84 40.99L35.38 36.52L35.37 36.51Q35.06 36.18 35.07 35.85Q35.08 35.53 35.4 35.21Q35.72 34.89 36.04 34.88Q36.37 34.87 36.7 35.18L36.71 35.19L43.16 41.62Q43.52 41.96 43.94 42.06Q44.36 42.16 44.84 42.03Q45.32 41.9 45.63 41.59Q45.93 41.28 46.07 40.8Q46.2 40.33 46.1 39.91Q46 39.49 45.66 39.13L41.22 34.7L41.22 34.69Q40.91 34.36 40.91 34.03Q40.92 33.7 41.24 33.38Q41.57 33.06 41.89 33.06Q42.22 33.05 42.56 33.36L42.56 33.37L46.2 36.99Q46.56 37.34 46.98 37.45Q47.41 37.56 47.89 37.43Q48.38 37.29 48.69 36.98Q49 36.67 49.13 36.19Q49.27 35.7 49.15 35.28Q49.05 34.86 48.7 34.51L34.58 20.41Q34.53 20.37 34.48 20.34Q34.42 20.32 34.36 20.32Q34.29 20.32 34.23 20.34Q34.18 20.37 34.13 20.41L27.97 26.56Q27.22 27.29 26.35 27.52Q25.47 27.74 24.46 27.47Q23.44 27.2 22.8 26.55Q22.16 25.91 21.89 24.91Q21.61 23.9 21.84 23.03Q22.07 22.14 22.8 21.39L31.44 12.77Q31.14 12.5 30.8 12.29Q30.27 11.97 29.63 11.81Q29.13 11.72 28.62 11.66Q27.93 11.58 27.22 11.54L27.22 11.54Q25.79 11.48 24.38 11.63Q23.08 11.77 21.81 12.09L10.57 23.3Q11.58 24.45 12.37 25.73Q13.25 27.16 13.87 28.74Q14.47 29.82 15.28 30.72Q15.98 31.51 16.85 32.16L16.94 32.06Q17.48 31.52 18.13 31.26Q18.78 30.99 19.55 30.99Q20.31 31 20.97 31.27Q21.61 31.55 22.14 32.09Q22.68 32.64 22.94 33.29Q23 33.45 23.05 33.62L23.11 33.56Q23.67 33 24.34 32.74Q25.02 32.47 25.81 32.49Q26.6 32.52 27.26 32.83Q27.92 33.13 28.44 33.73Q28.97 34.32 29.19 35.01Q29.3 35.35 29.34 35.72Q29.63 35.64 29.92 35.61Q30.58 35.56 31.27 35.75Q31.95 35.95 32.48 36.35Q33 36.76 33.37 37.36Q33.75 37.97 33.86 38.63Q33.91 38.93 33.91 39.25Q34.23 39.21 34.55 39.23Q35.22 39.28 35.87 39.59Q36.52 39.9 36.97 40.39Q37.43 40.88 37.7 41.55Q37.96 42.22 37.96 42.89Q37.96 43.36 37.83 43.82ZM36.78 20.64L36.26 20.13C36.5 20.14 36.74 20.15 36.98 20.14C38.58 20.1 40.14 19.62 41.48 18.74C41.67 18.59 41.71 18.34 41.58 18.14C41.46 17.95 41.2 17.88 41 17.99C39.17 19.2 36.91 19.56 34.8 18.99C34.21 18.83 33.58 19 33.15 19.43L26.99 25.57C26.42 26.13 25.59 26.34 24.82 26.13C24.05 25.91 23.44 25.31 23.23 24.54C23.02 23.77 23.23 22.95 23.79 22.37L34.06 12.13C34.75 11.43 35.64 10.96 36.61 10.77C37.58 10.58 38.58 10.69 39.48 11.07C40.45 11.48 41.52 11.59 42.54 11.38C43.5 11.18 44.39 10.71 45.09 10.04C45.14 9.99 45.19 9.94 45.23 9.89L45.59 10.25L56.77 21.4C56.36 22.88 56.09 24.4 55.97 25.94C55.82 27.93 54.96 29.8 53.55 31.21L50.69 34.05L50.32 34.43C50.24 34.27 50.16 34.12 50.06 33.98C49.95 33.81 49.82 33.66 49.68 33.52L36.78 20.64ZM37.46 20.62L50.04 33.17Q50.25 33.38 50.42 33.62L53.19 30.86Q54.22 29.82 54.8 28.58Q55.36 27.35 55.48 25.9Q55.56 24.86 55.73 23.84Q55.91 22.68 56.21 21.55L45.23 10.59Q44.78 10.99 44.26 11.27Q43.52 11.69 42.64 11.87Q41.79 12.04 40.95 11.96Q40.11 11.88 39.29 11.54Q38.66 11.27 38.01 11.2Q37.37 11.13 36.7 11.26Q36.04 11.39 35.46 11.7Q34.89 12 34.41 12.48L24.15 22.72Q23.8 23.08 23.69 23.5Q23.58 23.93 23.72 24.41Q23.85 24.89 24.15 25.2Q24.46 25.51 24.95 25.64Q25.45 25.78 25.88 25.67Q26.29 25.56 26.64 25.22L32.8 19.08Q33.25 18.63 33.78 18.48Q34.32 18.34 34.93 18.51Q36.49 18.93 37.94 18.69Q39.38 18.46 40.72 17.58L40.74 17.57L40.76 17.56Q41.14 17.35 41.45 17.42Q41.76 17.5 42 17.87Q42.24 18.23 42.19 18.54Q42.14 18.86 41.79 19.13L41.78 19.14L41.76 19.15Q40.51 19.98 39.13 20.35Q38.32 20.56 37.46 20.62ZM51.13 1.39C51.35 1.39 51.56 1.48 51.71 1.63L65.36 15.25C65.51 15.4 65.6 15.61 65.6 15.83C65.6 16.04 65.51 16.25 65.36 16.4L59.77 21.98C59.62 22.14 59.41 22.22 59.19 22.22C58.97 22.22 58.77 22.14 58.61 21.98L44.96 8.36C44.64 8.05 44.64 7.53 44.96 7.21L50.56 1.63C50.71 1.48 50.91 1.39 51.13 1.39ZM51.25 1.91Q51.31 1.94 51.36 1.98L51.36 1.99L65.01 15.6Q65.05 15.65 65.08 15.71Q65.1 15.76 65.1 15.83Q65.1 15.89 65.08 15.95Q65.05 16 65.01 16.05L59.42 21.63Q59.37 21.68 59.31 21.7Q59.26 21.72 59.19 21.72Q59.13 21.72 59.07 21.7Q59.01 21.68 58.97 21.63L45.32 8.01Q45.27 7.96 45.25 7.91Q45.22 7.85 45.22 7.79Q45.22 7.72 45.25 7.67Q45.27 7.61 45.32 7.57L50.91 1.99Q50.96 1.94 51.02 1.91Q51.07 1.89 51.13 1.89Q51.2 1.89 51.25 1.91ZM15.84 2.93C16.06 2.93 16.27 3.01 16.43 3.17L22.02 8.75C22.34 9.07 22.34 9.58 22.02 9.9L8.37 23.52C8.22 23.67 8.01 23.76 7.8 23.76C7.58 23.76 7.37 23.67 7.22 23.52L1.63 17.94C1.47 17.79 1.39 17.58 1.39 17.36C1.39 17.15 1.47 16.94 1.63 16.79L15.28 3.17C15.43 3.02 15.63 2.93 15.84 2.93ZM16.07 3.52L16.08 3.52L21.67 9.11Q21.78 9.22 21.78 9.33Q21.78 9.44 21.67 9.55L8.02 23.17Q7.97 23.21 7.92 23.24Q7.86 23.26 7.8 23.26Q7.73 23.26 7.67 23.24Q7.62 23.21 7.57 23.17L1.98 17.59Q1.93 17.54 1.91 17.48Q1.89 17.42 1.89 17.36Q1.89 17.3 1.91 17.25Q1.93 17.19 1.98 17.14L15.63 3.52Q15.68 3.47 15.73 3.45Q15.79 3.43 15.85 3.43Q15.91 3.43 15.97 3.45Q16.03 3.47 16.07 3.52ZM19.42 32.38C20.04 32.35 20.63 32.58 21.08 33C21.53 33.42 21.78 34 21.79 34.61C21.8 35.22 21.56 35.81 21.13 36.24L20.29 37.08C19.71 37.62 18.89 37.82 18.13 37.61C17.37 37.39 16.77 36.8 16.56 36.04C16.34 35.28 16.54 34.46 17.08 33.88L17.92 33.04C18.32 32.64 18.86 32.41 19.42 32.38ZM19.94 36.72L20.78 35.89Q21.04 35.62 21.17 35.3Q21.3 34.99 21.29 34.62Q21.29 34.25 21.15 33.93Q21.01 33.62 20.74 33.36Q20.47 33.1 20.14 32.99Q19.82 32.86 19.45 32.88Q19.1 32.9 18.81 33.03Q18.52 33.15 18.27 33.4L17.44 34.23Q17.11 34.59 17.01 35.01Q16.91 35.43 17.04 35.9Q17.17 36.38 17.48 36.68Q17.78 36.99 18.26 37.12Q18.74 37.26 19.17 37.16Q19.58 37.05 19.94 36.72ZM25.73 33.92C26.31 33.94 26.87 34.18 27.28 34.6C27.69 35.02 27.92 35.58 27.92 36.17C27.93 36.75 27.7 37.32 27.3 37.74L23.9 41.14C23.32 41.68 22.5 41.87 21.74 41.66C20.98 41.45 20.38 40.85 20.17 40.09C19.96 39.33 20.16 38.52 20.7 37.94L24.09 34.54C24.53 34.13 25.12 33.9 25.73 33.92ZM24.44 34.9L21.05 38.29Q20.72 38.65 20.62 39.06Q20.52 39.48 20.65 39.96Q20.78 40.43 21.09 40.74Q21.39 41.04 21.88 41.18Q22.35 41.31 22.78 41.21Q23.19 41.11 23.55 40.78L26.94 37.39Q27.19 37.13 27.31 36.83Q27.43 36.52 27.42 36.17Q27.42 35.82 27.3 35.52Q27.17 35.21 26.92 34.95L26.92 34.95Q26.67 34.7 26.37 34.57Q26.07 34.43 25.71 34.42Q25.34 34.41 25.02 34.53Q24.71 34.65 24.44 34.9ZM30.29 37.03C30.88 37.05 31.44 37.3 31.84 37.72C32.25 38.14 32.48 38.7 32.48 39.29C32.48 39.88 32.26 40.44 31.85 40.86L29.59 43.12L27.74 44.97C27.16 45.54 26.33 45.76 25.55 45.55C24.76 45.34 24.15 44.73 23.94 43.95C23.73 43.17 23.95 42.34 24.53 41.76L28.65 37.66C29.09 37.24 29.68 37.01 30.29 37.03ZM30.93 37.68Q31.24 37.81 31.49 38.07Q31.74 38.33 31.86 38.63Q31.98 38.94 31.98 39.29Q31.98 39.64 31.86 39.95Q31.74 40.26 31.49 40.51L29.24 42.76L27.38 44.61Q27.02 44.97 26.6 45.09Q26.17 45.2 25.67 45.07Q25.18 44.94 24.86 44.62Q24.55 44.31 24.42 43.82Q24.29 43.33 24.4 42.91Q24.52 42.48 24.88 42.12L29 38.01Q29.25 37.77 29.56 37.65Q29.89 37.52 30.28 37.53Q30.63 37.54 30.93 37.68ZM34.32 40.66C34.91 40.68 35.46 40.93 35.87 41.35C36.28 41.77 36.51 42.33 36.51 42.91C36.52 43.5 36.29 44.06 35.89 44.49L33.43 46.95C32.85 47.51 32.02 47.73 31.24 47.52C30.46 47.31 29.85 46.7 29.64 45.93C29.43 45.15 29.65 44.32 30.22 43.75L32.68 41.29C33.12 40.87 33.71 40.64 34.32 40.66ZM33.03 41.65L30.57 44.1Q30.22 44.46 30.1 44.89Q29.99 45.31 30.13 45.8Q30.26 46.28 30.57 46.59Q30.88 46.91 31.37 47.04Q31.87 47.17 32.3 47.06Q32.72 46.95 33.07 46.59L35.53 44.14Q35.77 43.88 35.89 43.58Q36.02 43.27 36.01 42.92Q36.01 42.56 35.89 42.26Q35.77 41.95 35.51 41.7L35.51 41.7Q35.27 41.44 34.97 41.31Q34.66 41.17 34.3 41.16Q33.94 41.15 33.62 41.27Q33.3 41.39 33.03 41.65Z" fill="#B01736" fill-opacity="1.000000" fill-rule="evenodd"/>
	</g>
</svg>
