<svg width="48.000336" height="48.000122" viewBox="0 0 48.0003 48.0001" fill="none" xmlns="http://www.w3.org/2000/svg" xmlns:xlink="http://www.w3.org/1999/xlink">
	<desc>
			Created with Pixso.
	</desc>
	<defs/>
	<rect id="Rectangle 9064" x="26.937576" y="27.894531" rx="1.000000" width="9.000000" height="9.000000" stroke="#B01736" stroke-opacity="1.000000" stroke-width="2.000000"/>
	<path id="Vector" d="M39.93 21.23L39.93 46C39.93 46.55 39.48 47 38.93 47L9.14 47C8.59 47 8.14 46.55 8.14 46L8.14 35.11L8.14 21.23M13.14 47L13.14 28.89C13.14 28.34 13.59 27.89 14.14 27.89L21.14 27.89C21.7 27.89 22.14 28.34 22.14 28.89L22.14 47" stroke="#B01736" stroke-opacity="1.000000" stroke-width="2.000000"/>
	<path id="Rectangle 9063" d="M2.44 21C1.09 21 0.48 19.34 1.52 18.5L22.79 1.32C23.31 0.89 24.08 0.89 24.61 1.31L46.45 18.49C47.52 19.32 46.91 21 45.55 21L2.44 21Z" stroke="#B01736" stroke-opacity="1.000000" stroke-width="2.000000"/>
</svg>
