<svg width="49.102814" height="48.595032" viewBox="0 0 49.1028 48.595" fill="none" xmlns="http://www.w3.org/2000/svg" xmlns:xlink="http://www.w3.org/1999/xlink">
	<desc>
			Created with Pixso.
	</desc>
	<defs/>
	<g opacity="0.900000">
		<rect id="med" rx="0.000000" width="47.000000" height="47.000000" transform="translate(0.984619 0.900391)" fill="#FFFFFF" fill-opacity="0"/>
		<path id="Rectangle 9046" d="M41.48 11.2C43.55 11.2 45.28 12.77 45.47 14.83L48.08 43.22C48.29 45.57 46.45 47.59 44.09 47.59L5 47.59C2.6 47.59 0.74 45.49 1.03 43.1L4.51 14.71C4.76 12.7 6.46 11.2 8.48 11.2L41.48 11.2Z" stroke="#B01736" stroke-opacity="1.000000" stroke-width="2.000000"/>
		<path id="Vector 201" d="M24.48 20.03L24.48 38.75" stroke="#B01736" stroke-opacity="1.000000" stroke-width="2.000000" stroke-linecap="round"/>
		<path id="Vector 202" d="M14.63 29.39L34.32 29.39" stroke="#B01736" stroke-opacity="1.000000" stroke-width="2.000000" stroke-linecap="round"/>
		<path id="Rectangle 9047" d="M14.88 11.2L14.88 5C14.88 2.79 16.67 1 18.88 1L30.08 1C32.29 1 34.08 2.79 34.08 5L34.08 11.2" stroke="#B01736" stroke-opacity="1.000000" stroke-width="2.000000"/>
	</g>
</svg>
