<svg xmlns="http://www.w3.org/2000/svg" width="48.000000" height="48.000000" fill="none" viewBox="0 0 48 48"><defs><clipPath id="a"><rect width="47.000000" height="47.000000" fill="#fff" fill-opacity="0" rx="0.000000" transform="translate(.5 .5)"/></clipPath></defs><g opacity="0.900000"><rect width="47.000000" height="47.000000" rx="0.000000" transform="translate(.5 .5)"/><g clip-path="url(#a)"><rect width="31.599998" height="46.000000" x="8.199219" y="1.000000" stroke="#B01736" stroke-opacity="1.000000" stroke-width="2.000000" rx="5.000000"/><path fill="#B01736" fill-opacity="1.000000" fill-rule="evenodd" d="M33.59 0v5c0 1.65-1.34 3-3 3h-13.2c-1.65 0-3-1.35-3-3V0zm-2 2v3c0 .55-.44 1-1 1h-13.2c-.55 0-1-.45-1-1V2zm-12.4 37h9.6v2h-9.6zm.02 1.98-.02.02c-.56 0-1-.44-1-1 0-.57.44-1 1-1l.02.02zm9.56-1.96.02-.02c.56 0 1 .43 1 1 0 .56-.44 1-1 1l-.02-.02z"/></g></g></svg>