<svg xmlns="http://www.w3.org/2000/svg" width="48.000000" height="48.000000" fill="none" viewBox="0 0 48 48"><defs><clipPath id="a"><rect width="47.000000" height="47.000000" fill="#fff" fill-opacity="0" rx="0.000000" transform="translate(.5 .5)"/></clipPath></defs><g opacity="0.900000"><rect width="47.000000" height="47.000000" rx="0.000000" transform="translate(.5 .5)"/><g fill="#B01736" fill-opacity="1.000000" fill-rule="evenodd" clip-path="url(#a)"><path d="m1.7 28.93.74-.74c.59-.59 1.34-.9 2.11-.94l-2.53-2.52c-.62-.63-.94-1.45-.94-2.27v-.01c0-.83.32-1.65.94-2.28l1.4-1.39c.62-.63 1.45-.94 2.27-.94.83-.01 1.65.31 2.28.94l6.83 6.82 10.8-10.8-6.82-6.83c-.63-.62-.94-1.45-.94-2.27v-.01c0-.83.31-1.65.94-2.27l1.39-1.4c.63-.63 1.46-.94 2.28-.94s1.65.31 2.28.94l2.52 2.53c.04-.77.35-1.52.93-2.1l.75-.75a3.2 3.2 0 0 1 2.28-.94c.82 0 1.64.31 2.27.94l3.23 3.23.76.76 4.83 4.83.76.76 3.23 3.23c.63.62.94 1.45.94 2.28 0 .82-.31 1.65-.94 2.27l-.74.75c-.59.58-1.34.89-2.1.93l2.52 2.53c.63.62.94 1.45.94 2.27 0 .83-.32 1.65-.94 2.28l-1.4 1.4c-.63.62-1.45.94-2.28.94-.82 0-1.64-.32-2.27-.94l-6.34-6.35-10.81 10.81 6.35 6.34c.62.63.94 1.45.94 2.28h-.01c.01.82-.31 1.65-.94 2.27l-1.39 1.4a3.2 3.2 0 0 1-2.28.94c-.82 0-1.65-.31-2.27-.94l-2.53-2.52a3.23 3.23 0 0 1-.93 2.1l-.75.74c-.62.63-1.45.94-2.27.94a3.2 3.2 0 0 1-2.28-.94l-3.23-3.23-.76-.76-4.83-4.83-.76-.76-3.23-3.23c-.62-.62-.94-1.44-.94-2.27v-.01c0-.82.32-1.65.94-2.27m1.08-8 1.4-1.39a2.137 2.137 0 0 1 3.03 0l21.25 21.24c.42.42.62.97.63 1.51l-.01.01c0 .55-.21 1.09-.63 1.51l-1.39 1.4c-.42.42-.97.63-1.52.63s-1.1-.21-1.52-.63L2.78 23.97c-.42-.42-.63-.97-.63-1.52s.21-1.1.63-1.52m-.32 8.76.74-.75a2.175 2.175 0 0 1 3.04 0l12.81 12.81c.42.42.62.97.63 1.52h-.01c0 .55-.21 1.1-.62 1.52l-.75.74c-.41.42-.96.63-1.51.63s-1.1-.21-1.52-.63L2.46 32.72c-.42-.42-.63-.97-.63-1.51v-.01c0-.55.21-1.09.63-1.51M28.94 3.2l.75-.74c.42-.42.97-.63 1.52-.63s1.1.21 1.51.63l12.81 12.81c.42.41.63.96.63 1.51v.01c0 .54-.21 1.1-.63 1.51l-.74.75a2.175 2.175 0 0 1-3.04 0L28.95 6.24c-.42-.42-.63-.97-.63-1.52s.21-1.1.62-1.52m-9.4.98 1.39-1.4c.42-.42.97-.63 1.52-.63s1.1.21 1.52.63L41 19.81l4.21 4.21c.42.42.63.97.63 1.52s-.21 1.1-.63 1.52l-1.4 1.39c-.41.42-.96.63-1.51.63s-1.1-.21-1.52-.62L19.54 7.21c-.42-.42-.63-.97-.63-1.51v-.01c0-.55.21-1.1.63-1.51m-3.81 22 5.32-5.31 5.31-5.32 6.56 6.56-10.63 10.63z"/><path d="M2.75 27.43q-.32.2-.59.47l-.74.75q-.27.26-.47.57-.19.29-.32.62-.12.3-.19.61-.06.29-.07.59l-.18.17.18.17q.01.3.07.6.07.3.19.59.13.33.32.62.2.31.47.57L4.65 37l.76.76 4.83 4.82.75.76 3.24 3.24q.26.26.57.46.29.19.63.33.29.12.6.18.37.08.76.08.37 0 .73-.07.32-.07.63-.19.33-.13.62-.32.31-.21.58-.48l.74-.74q.27-.27.47-.58.16-.25.28-.52.1-.22.17-.45l1.97 1.97q.28.28.6.48.28.19.6.32.3.12.62.18.36.08.74.08t.73-.07q.33-.07.63-.19.32-.13.6-.31.32-.21.6-.49l1.4-1.39q.27-.28.48-.6.18-.28.31-.6.13-.31.19-.64.06-.27.07-.55l.01-.01v-.16q0-.4-.08-.77-.07-.3-.19-.6-.13-.31-.31-.59-.2-.33-.48-.6l-6.06-6.06 10.24-10.24 6.06 6.06q.28.28.61.49.28.18.58.3.31.13.63.19.36.08.73.08.39 0 .77-.08.3-.07.6-.19.31-.12.59-.3.32-.21.6-.49l1.4-1.4q.27-.27.48-.58.18-.29.31-.61.12-.29.19-.59.06-.3.07-.61h.01v-.17q0-.39-.08-.77-.07-.3-.18-.59-.13-.32-.32-.61-.2-.31-.48-.59l-1.97-1.97q.22-.07.45-.17.28-.12.54-.29.3-.2.56-.46l.74-.74q.27-.27.48-.58.18-.29.32-.62.12-.31.19-.64.07-.35.07-.72v-.05q0-.35-.07-.69-.07-.32-.19-.63-.14-.33-.33-.62-.2-.31-.46-.57l-3.24-3.24-.76-.76-4.82-4.82-.76-.76-3.24-3.23q-.27-.28-.6-.49-.28-.18-.59-.31-.31-.12-.62-.18-.37-.08-.74-.08-.39 0-.76.08-.31.06-.61.18-.31.13-.59.31-.32.21-.6.49l-.75.74q-.25.26-.45.55-.17.26-.3.56-.1.22-.16.45l-1.98-1.98q-.28-.28-.6-.48-.28-.19-.6-.32-.31-.12-.64-.19-.35-.07-.72-.07-.38 0-.74.08-.32.06-.62.18-.32.13-.6.31-.32.21-.6.49l-1.4 1.39q-.26.27-.47.58-.18.29-.32.62-.11.28-.18.57-.06.31-.08.63v.17q0 .39.08.76.06.31.18.6.13.32.32.61.2.31.47.58l6.55 6.55L14.8 25.04l-6.55-6.55q-.28-.28-.6-.49-.28-.17-.59-.3-.32-.13-.65-.2-.35-.06-.72-.06t-.73.07q-.32.07-.63.19-.31.13-.59.31-.33.21-.61.48l-1.39 1.4q-.27.26-.47.57-.19.29-.32.63-.12.28-.18.58-.09.38-.09.78v.16l.01.01q.01.28.06.55.07.33.2.65t.31.6q.21.32.48.59l1.97 1.98q-.22.06-.44.16-.28.12-.52.28m1.43-.55.37.37c-.17.01-.34.03-.51.07-.58.12-1.14.41-1.6.87l-.74.74a3.22 3.22 0 0 0-.94 2.27v.01c0 .83.32 1.65.94 2.27l3.23 3.23.76.76 4.83 4.83.76.76 3.23 3.23a3.2 3.2 0 0 0 2.28.94c.82 0 1.65-.31 2.27-.94l.75-.74c.45-.46.74-1.02.87-1.6.03-.17.05-.34.06-.5l2.53 2.52c.62.63 1.45.94 2.27.94a3.2 3.2 0 0 0 2.28-.94l1.39-1.4c.63-.62.95-1.45.94-2.27h.01c0-.83-.32-1.65-.94-2.28l-6.35-6.34 10.81-10.81.28.28 6.06 6.07c.63.62 1.45.94 2.27.94.83 0 1.65-.32 2.28-.94l1.4-1.4c.62-.63.94-1.45.94-2.28 0-.82-.31-1.65-.94-2.27l-2.52-2.53c.16-.01.33-.03.5-.06.58-.13 1.14-.42 1.6-.87l.74-.75c.63-.62.94-1.45.94-2.27 0-.83-.31-1.66-.94-2.28l-3.23-3.23-.76-.76-4.83-4.83-.76-.76-3.23-3.23c-.63-.63-1.45-.94-2.27-.94a3.2 3.2 0 0 0-2.28.94l-.75.75c-.45.45-.74 1.01-.86 1.6-.04.16-.06.33-.07.5l-2.52-2.53c-.63-.63-1.46-.94-2.28-.94s-1.65.31-2.28.94l-1.39 1.4c-.63.62-.94 1.44-.94 2.27v.01c0 .82.31 1.65.94 2.27l6.54 6.54.28.29-10.8 10.8-6.83-6.82a3.16 3.16 0 0 0-2.28-.94c-.82 0-1.65.31-2.27.94l-1.4 1.39c-.62.63-.94 1.45-.94 2.28v.01c0 .82.32 1.64.94 2.27zm41.66-1.34c0-.55-.21-1.1-.63-1.52L41 19.81 23.97 2.78c-.42-.42-.97-.63-1.52-.63s-1.1.21-1.52.63l-1.39 1.4c-.42.41-.63.96-.63 1.51v.01c0 .54.21 1.09.63 1.51l21.24 21.25c.42.41.97.62 1.52.62s1.1-.21 1.51-.63l1.4-1.39c.42-.42.63-.97.63-1.52m-.4-.06q-.01-.16-.04-.31-.03-.14-.09-.29-.06-.14-.14-.28-.1-.16-.24-.29l-4.22-4.22L23.69 3.06q-.13-.13-.28-.22-.14-.09-.3-.16-.14-.06-.29-.09-.18-.04-.37-.04-.2 0-.39.05-.14.03-.27.08-.15.06-.29.15-.15.1-.28.23l-1.4 1.4q-.14.13-.24.29-.08.13-.14.29-.07.15-.1.32-.03.16-.03.33v.01q0 .17.03.34.03.16.09.31t.15.28q.1.16.24.3l21.24 21.24q.14.14.29.24.14.08.29.14.12.05.24.08.2.05.42.05.17 0 .34-.03.16-.03.31-.1.15-.06.29-.14.16-.1.29-.24l1.4-1.4q.14-.14.25-.31.07-.12.13-.26.06-.15.09-.3.04-.17.04-.36zM29.08 42.3l.01-.01a2.18 2.18 0 0 0-.63-1.51L7.21 19.54a2.137 2.137 0 0 0-3.03 0l-1.4 1.39c-.42.42-.63.97-.63 1.52s.21 1.1.63 1.52l21.24 21.24c.42.42.97.63 1.52.63s1.1-.21 1.52-.63l1.39-1.4c.42-.42.63-.96.63-1.51M2.56 22.36l-.01.09q0 .17.03.33.04.17.1.33.06.14.14.27.1.16.24.3l21.25 21.25q.13.13.29.23.13.09.28.15.12.05.25.08.2.05.41.05.18 0 .35-.04.16-.03.31-.09t.28-.15q.16-.1.3-.23l1.39-1.4q.15-.15.26-.33.07-.12.13-.25.06-.15.09-.31.03-.17.03-.34v-.07q0-.15-.03-.3t-.09-.29q-.06-.15-.14-.28-.11-.16-.25-.3L6.93 19.82q-.14-.14-.3-.24-.13-.09-.28-.14-.14-.06-.29-.09-.18-.04-.36-.04-.21 0-.41.04-.13.03-.25.09-.15.05-.28.14-.16.1-.3.24l-1.4 1.39q-.14.14-.24.3-.08.14-.14.28t-.09.29q-.03.14-.03.28m43.6-5.57v-.01c0-.55-.21-1.1-.63-1.51L32.72 2.46c-.41-.42-.96-.63-1.51-.63s-1.1.21-1.52.63l-.75.74c-.41.42-.62.97-.62 1.52s.21 1.1.63 1.52l12.8 12.81a2.175 2.175 0 0 0 3.04 0l.74-.75c.42-.41.63-.97.63-1.51M28.72 4.68v.04q0 .17.03.34.03.16.09.32.06.13.13.25.11.17.26.32l12.81 12.81q.13.13.28.23.14.09.29.16.13.05.27.08.19.04.39.04.17 0 .33-.03.17-.03.33-.09.15-.07.29-.15.15-.1.29-.24l.74-.74q.13-.13.23-.29.09-.13.15-.29.06-.15.1-.31.03-.17.03-.34v-.08q-.01-.16-.04-.31-.03-.14-.09-.27-.06-.16-.15-.3-.1-.15-.23-.28L32.44 2.74q-.13-.13-.28-.23-.14-.09-.29-.15-.14-.06-.28-.09-.19-.04-.38-.04t-.36.04q-.16.03-.3.09-.15.06-.28.14-.16.11-.3.24l-.74.75q-.15.14-.25.31-.08.12-.14.26-.06.16-.09.31t-.03.31m-9.05 38.59h.01c-.01-.55-.21-1.1-.63-1.52L6.24 28.94a2.175 2.175 0 0 0-3.04 0l-.74.75c-.42.42-.63.96-.63 1.51v.01c0 .54.21 1.09.63 1.51l12.81 12.81c.42.42.97.63 1.52.63s1.1-.21 1.51-.63l.75-.74c.41-.42.62-.97.62-1.52M2.23 31.23q0 .16.04.32.03.16.09.31t.14.28q.1.16.24.3l12.81 12.81q.14.13.29.23.14.09.29.15.13.05.26.08.19.05.4.05.18 0 .36-.04.15-.03.29-.09.16-.06.29-.15.16-.1.29-.23l.74-.75q.14-.13.24-.28.08-.14.15-.29.06-.15.09-.31.03-.17.03-.35v-.07q0-.16-.04-.32-.03-.13-.08-.27-.07-.15-.16-.29-.09-.15-.22-.28L5.96 29.23q-.14-.14-.29-.24-.14-.08-.29-.15-.14-.05-.28-.08-.19-.04-.38-.04-.18 0-.36.03-.15.04-.3.09-.14.06-.28.15-.16.1-.29.24l-.75.74q-.14.14-.25.31-.07.13-.13.27-.07.16-.1.33-.03.16-.03.32zm30.69-9.12-6.56-6.56-10.63 10.63 6.56 6.56zM16.3 26.18l5.99 5.99 10.06-10.06-5.99-5.99z"/></g></g></svg>