<svg xmlns="http://www.w3.org/2000/svg" width="48.076538" height="47.995392" fill="none" viewBox="0 0 48.0765 47.9954"><g opacity="0.900000"><rect width="46.795528" height="46.795506" rx="0.000000" transform="translate(.6 .6)"/><path fill="#B01736" fill-opacity="1.000000" fill-rule="evenodd" d="M4.8 9.64c0 2.62 2.15 4.75 4.8 4.75 2.64 0 4.79-2.13 4.79-4.75 0-2.33-3.66-8.57-4.08-9.27-.3-.5-1.13-.5-1.43 0-.42.7-4.08 6.94-4.08 9.27m2.06.6q-.06-.29-.06-.6 0-.17.09-.54.12-.46.36-1.08.43-1.15 1.22-2.73.51-1.02 1.13-2.13.61 1.11 1.12 2.13.79 1.58 1.23 2.73.23.62.35 1.08.09.37.09.54 0 .31-.06.6-.06.24-.15.46-.09.2-.2.38-.17.27-.4.5-.2.2-.44.36-.21.13-.45.24-.22.09-.44.14-.32.07-.65.07-.34 0-.66-.07-.22-.06-.44-.14-.24-.11-.45-.25-.24-.15-.44-.35-.23-.23-.4-.5-.11-.18-.2-.38-.09-.22-.15-.46"/><path fill="#B01736" fill-opacity="1.000000" fill-rule="evenodd" d="M7.2 12.95c-1.33 0-2.4 1.07-2.4 2.4V28.4h9.59V15.35c0-1.33-1.07-2.4-2.39-2.4zm5.19 13.45V15.35q0-.08-.02-.15-.03-.07-.09-.13t-.13-.09-.15-.03H7.2q-.09 0-.16.03t-.13.09-.08.13q-.03.07-.03.15V26.4zm9.2-13.45a2.4 2.4 0 0 0-2.4 2.4V28.4h9.6V15.35c0-1.33-1.07-2.4-2.4-2.4zm5.2 13.45V15.35q0-.08-.03-.15t-.08-.13q-.06-.06-.13-.09t-.16-.03h-4.8q-.08 0-.15.03t-.13.09-.09.13-.03.15V26.4z"/><path fill="#B01736" fill-opacity="1.000000" fill-rule="evenodd" d="M23.99 14.39c-2.64 0-4.8-2.13-4.8-4.75 0-2.33 3.67-8.57 4.09-9.27.3-.5 1.13-.5 1.43 0 .42.7 4.08 6.94 4.08 9.27 0 2.62-2.15 4.75-4.8 4.75m-2.73-4.15q-.07-.29-.07-.6 0-.17.1-.54.12-.46.35-1.08.44-1.15 1.23-2.73.51-1.02 1.12-2.13.62 1.11 1.13 2.13.79 1.58 1.22 2.73.24.62.36 1.08.09.37.09.54 0 .31-.06.61-.06.23-.15.45-.09.2-.2.38-.17.27-.4.5-.2.2-.44.35-.21.14-.45.25-.22.09-.44.14-.32.07-.66.07-.33 0-.65-.07-.22-.06-.44-.14-.24-.11-.45-.25-.24-.15-.44-.35-.23-.23-.4-.5-.11-.18-.2-.38-.09-.22-.15-.46m14.73 2.71a2.4 2.4 0 0 0-2.4 2.4V28.4h9.6V15.35c0-1.33-1.07-2.4-2.4-2.4zm5.2 13.45V15.35q0-.08-.03-.15t-.08-.13q-.06-.06-.13-.09t-.16-.03h-4.8q-.08 0-.15.03t-.13.09-.09.13-.03.15V26.4z"/><path fill="#B01736" fill-opacity="1.000000" fill-rule="evenodd" d="M33.59 9.64c0 2.62 2.16 4.75 4.8 4.75 2.65 0 4.8-2.13 4.8-4.75 0-2.33-3.67-8.57-4.08-9.27-.3-.5-1.13-.5-1.43 0-.42.7-4.09 6.94-4.09 9.27m2.07.6q-.07-.29-.07-.6 0-.17.1-.54.12-.46.35-1.08.44-1.15 1.23-2.73.51-1.02 1.12-2.13.62 1.11 1.13 2.13.79 1.58 1.22 2.73.24.62.36 1.08.09.37.09.54 0 .31-.06.6-.06.24-.15.46-.09.2-.2.38-.17.27-.4.5-.21.2-.44.36-.22.13-.45.24-.22.09-.44.14-.32.07-.66.07-.33 0-.65-.07-.23-.06-.44-.14-.24-.11-.45-.25-.24-.15-.44-.35-.23-.23-.4-.5-.12-.18-.2-.38-.1-.22-.15-.46m12.41 27.03-2.08 1.61q-.53.41-1.2.62-.63.2-1.31.2t-1.31-.2q-.67-.21-1.2-.62l-2.08-1.61q-.03-.02-.08-.03-.08-.03-.18-.03-.09 0-.17.03-.06.01-.08.03l-2.08 1.61q-.53.41-1.2.62-.63.2-1.31.2t-1.31-.2q-.68-.21-1.2-.62l-2.09-1.61q-.02-.02-.07-.03-.08-.03-.18-.03t-.18.03q-.05.01-.08.03l-2.08 1.61q-.52.41-1.18.62-.63.2-1.33.2-.69 0-1.33-.2-.66-.21-1.18-.62l-2.08-1.61q-.02-.02-.08-.03-.08-.03-.18-.03-.09 0-.17.03-.06.01-.08.03l-2.08 1.61q-.53.41-1.2.62-.63.2-1.31.2t-1.31-.2q-.68-.21-1.2-.62l-2.08-1.61q-.03-.02-.08-.03-.08-.03-.18-.03-.09 0-.17.03-.06.01-.08.03l-2.09 1.61q-.51.41-1.2.61-.62.19-1.31.19-.68 0-1.31-.19-.68-.2-1.2-.61L.11 37.27l1.23-1.58 2.08 1.61q.23.18.55.28.35.1.73.1.39 0 .73-.1.33-.1.56-.28l2.08-1.61q.32-.25.73-.37.36-.11.75-.11t.76.11q.4.12.72.37l2.08 1.61q.25.19.58.3.34.1.71.1t.71-.1q.33-.11.57-.3l2.09-1.61q.31-.25.72-.37.36-.11.75-.11.4 0 .76.11.41.12.72.37l2.09 1.61q.24.19.56.29.34.11.72.11t.72-.11q.33-.1.57-.29l2.08-1.61q.32-.25.72-.37.37-.11.76-.11t.76.11q.4.12.72.37l2.08 1.61q.24.19.58.3.33.1.71.1.37 0 .71-.1.33-.11.57-.3l2.08-1.61q.32-.25.73-.37.36-.11.75-.11t.76.11q.41.12.72.37l2.08 1.61q.25.19.58.3.34.1.71.1t.71-.1q.33-.11.57-.3l2.09-1.61z"/><rect width="45.995415" height="19.522650" x="1.000000" y="27.472656" stroke="#B01736" stroke-opacity="1.000000" stroke-width="2.000000" rx="4.799541"/></g></svg>