<svg xmlns="http://www.w3.org/2000/svg" width="67.000000" height="49.006920" fill="none" viewBox="0 0 67 49.0069"><g fill="#B01736" fill-opacity="1.000000" opacity="0.900000"><path d="M51.11.5c-.44.01-.86.19-1.18.5l-5.59 5.58c-.32.32-.5.76-.5 1.21s.18.89.5 1.21l.27.26a4.26 4.26 0 0 1-2.23 1.25c-.86.17-1.74.09-2.55-.25a5.8 5.8 0 0 0-3.39-.36c-1.14.22-2.19.77-3.01 1.59l-.66.66a5.47 5.47 0 0 0-2.86-1.7 20 20 0 0 0-7.19.02c.6-.67.58-1.7-.06-2.34l-5.6-5.59c-.67-.66-1.75-.66-2.42 0L1 16.16c-.67.67-.67 1.75 0 2.41l5.59 5.59c.67.66 1.75.66 2.42 0l.24-.25c1.44 1.59 2.58 3.42 3.35 5.42a12.5 12.5 0 0 0 3.66 4.13 3.14 3.14 0 0 0-.71 2.41c.1.87.57 1.65 1.28 2.17.7.51 1.59.71 2.45.54-.22.72-.19 1.49.11 2.19a3.1 3.1 0 0 0 1.5 1.59c.67.34 1.45.42 2.18.24-.23.89-.05 1.85.49 2.6s1.39 1.23 2.31 1.31c.93.08 1.84-.26 2.49-.91l.3-.3c-.01.85.32 1.66.91 2.26s1.39.94 2.24.94c.84.01 1.65-.32 2.24-.92l2.47-2.46c.1-.09.18-.19.27-.3.63.45 1.42.64 2.19.55.77-.1 1.48-.47 2-1.06.51-.59.79-1.34.77-2.12l.43.42a3.18 3.18 0 0 0 2.75.89 3.17 3.17 0 0 0 2.32-1.72c.45-.91.43-1.98-.05-2.88a3.155 3.155 0 0 0 3.39-3.48l3.59-3.58a9.26 9.26 0 0 0 2.68-5.83c.1-1.31.32-2.6.64-3.88l.49.49c.66.66 1.74.66 2.41 0l5.6-5.58c.66-.67.66-1.75 0-2.41L52.35 1.01c-.33-.33-.78-.51-1.24-.5zm.02.89c.22 0 .43.09.58.24l13.65 13.62c.15.15.24.36.24.58 0 .21-.09.42-.24.57l-5.59 5.58c-.15.16-.36.24-.58.24s-.42-.08-.58-.24L44.96 8.36a.81.81 0 0 1 0-1.15l5.6-5.58c.15-.15.35-.24.57-.24M15.84 2.93c.22 0 .43.08.59.24l5.59 5.58c.32.32.32.83 0 1.15L8.37 23.52a.82.82 0 0 1-.57.24c-.22 0-.43-.09-.58-.24l-5.59-5.58a.8.8 0 0 1-.24-.58c0-.21.08-.42.24-.57L15.28 3.17c.15-.15.35-.24.56-.24m29.39 6.96L56.77 21.4c-.41 1.48-.68 3-.8 4.54a8.34 8.34 0 0 1-2.42 5.27l-3.23 3.22c-.16-.34-.37-.64-.64-.91L36.26 20.13c1.85.11 3.68-.38 5.22-1.39.19-.15.23-.4.1-.6a.444.444 0 0 0-.58-.15 7.63 7.63 0 0 1-6.2 1c-.59-.16-1.22.01-1.65.44l-6.16 6.14c-.57.56-1.4.77-2.17.56-.77-.22-1.38-.82-1.59-1.59s0-1.59.56-2.17l10.27-10.24c.69-.7 1.58-1.17 2.55-1.36s1.97-.08 2.87.3c.97.41 2.04.52 3.06.31 1.03-.21 1.97-.73 2.69-1.49m-17.99 1.16c.84.03 1.67.13 2.49.27.94.23 1.78.74 2.41 1.46l-8.98 8.96c-.79.8-1.09 1.95-.79 3.03a3.17 3.17 0 0 0 2.22 2.22c1.08.29 2.23-.01 3.03-.79l6.16-6.14c.15-.15.36-.24.58-.24.21 0 .42.09.57.24l14.12 14.09c.56.58.78 1.4.56 2.17-.21.78-.81 1.38-1.58 1.59-.78.21-1.6 0-2.18-.56l-3.63-3.62a.44.44 0 0 0-.62.01c-.17.17-.18.44-.02.61l4.44 4.43c.54.58.74 1.4.53 2.16s-.81 1.36-1.58 1.57c-.76.21-1.58.01-2.16-.53l-6.44-6.43a.45.45 0 0 0-.62.01.45.45 0 0 0-.01.62l4.46 4.45c.54.55.76 1.33.59 2.08-.16.75-.7 1.36-1.42 1.63s-1.52.15-2.14-.3a3.15 3.15 0 0 0-1.58-4c-.72-.34-1.54-.4-2.3-.16.15-.78.01-1.58-.4-2.26a3.17 3.17 0 0 0-1.82-1.39c-.76-.22-1.58-.14-2.29.21.08-.87-.2-1.73-.77-2.38-.58-.65-1.4-1.04-2.27-1.07a3.22 3.22 0 0 0-2.34.92l-.77.78a3.177 3.177 0 0 0-3.14-3.2c-.85 0-1.66.33-2.25.92l-.4.4c-1.44-1-2.63-2.32-3.49-3.86-.81-2.09-2.01-4.01-3.52-5.67l11.66-11.64c1.86-.48 3.78-.68 5.7-.59zm-7.82 21.33c.62-.03 1.21.2 1.66.62s.7 1 .71 1.61-.23 1.2-.66 1.63l-.84.84c-.58.54-1.4.74-2.16.53-.76-.22-1.36-.81-1.57-1.57-.22-.76-.02-1.58.52-2.16l.84-.84c.4-.4.94-.63 1.5-.66m6.31 1.54c.58.02 1.14.26 1.55.68s.64.98.64 1.57c.01.58-.22 1.15-.62 1.57l-3.4 3.4c-.58.54-1.4.73-2.16.52a2.26 2.26 0 0 1-1.04-3.72l3.39-3.4c.44-.41 1.03-.64 1.64-.62m4.56 3.11c.59.02 1.15.27 1.55.69.41.42.64.98.64 1.57s-.22 1.15-.63 1.57l-2.26 2.26-1.85 1.85c-.58.57-1.41.79-2.19.58-.79-.21-1.4-.82-1.61-1.6s.01-1.61.59-2.19l4.12-4.1a2.27 2.27 0 0 1 1.64-.63m4.03 3.63c.59.02 1.14.27 1.55.69s.64.98.64 1.56c.01.59-.22 1.15-.62 1.58l-2.46 2.46c-.58.56-1.41.78-2.19.57s-1.39-.82-1.6-1.59c-.21-.78.01-1.61.58-2.18l2.46-2.46a2.27 2.27 0 0 1 1.64-.63"/><path fill-rule="evenodd" d="M50.28.17q-.38.16-.7.48l-5.6 5.58q-.32.32-.48.71t-.16.85q0 .45.16.84.13.34.39.62-.25.21-.53.37-.5.27-1.09.4-.57.12-1.13.06-.56-.05-1.11-.29-.89-.37-1.81-.47t-1.88.09q-.95.18-1.77.62-.81.43-1.5 1.11l-.29.3q-.48-.46-1.03-.79-.79-.47-1.73-.69H30q-1.87-.34-3.74-.33-1.29.01-2.57.18.08-.27.08-.54-.02-.76-.76-1.5l-5.6-5.58q-.78-.78-1.56-.78t-1.56.78L.64 15.81q-.32.32-.48.71t-.16.85q0 .45.16.84t.48.71l5.6 5.59q.78.78 1.56.78.71 0 1.42-.65.85.99 1.53 2.09.81 1.31 1.38 2.78l.01.03.02.03q.71 1.29 1.66 2.36.79.89 1.75 1.63-.27.43-.41.89-.21.7-.11 1.48.1.79.47 1.41.37.63 1.01 1.1t1.36.62q.37.09.76.09-.03.28-.02.57.03.63.3 1.24.26.62.69 1.09.44.46 1.05.76.6.3 1.23.37.28.03.57.01-.03.44.05.86.14.75.64 1.44.49.69 1.15 1.07.67.38 1.52.45t1.57-.2q.47-.17.89-.48.05.19.12.38.26.65.8 1.2.53.54 1.18.81.65.28 1.41.28.77.01 1.42-.26t1.19-.8l2.46-2.46.01-.01q.4.21.83.32.63.16 1.33.07.69-.08 1.27-.39.58-.3 1.04-.83.47-.53.69-1.15.05-.12.08-.25.54.44 1.16.64.8.26 1.73.11t1.61-.65q.66-.5 1.08-1.34.41-.84.4-1.67-.01-.47-.15-.94.42-.05.8-.2.73-.27 1.33-.89.6-.61.85-1.35.22-.63.18-1.34l3.42-3.41q1.28-1.28 1.99-2.83.7-1.53.84-3.32.08-1.02.25-2.03.08-.46.17-.91.71.64 1.41.64.78 0 1.56-.78l5.6-5.58q.32-.32.48-.71.17-.39.17-.85 0-.45-.17-.84-.16-.39-.48-.72L52.7.65q-.33-.32-.72-.49-.19-.07-.4-.11V0h-.47q-.45.01-.83.17m.83.34V.5c-.06 0-.12.01-.17.01-.11.02-.22.04-.32.07q-.39.135-.69.42l-5.59 5.58c-.32.32-.5.76-.5 1.21s.18.89.5 1.21l.27.26c-.05.05-.09.1-.14.15l-.23.2c-.53.44-1.17.75-1.86.9-.86.17-1.74.09-2.55-.25a5.8 5.8 0 0 0-3.39-.36c-1.14.22-2.19.77-3.01 1.59l-.3.31-.36.35c-.11-.13-.23-.24-.35-.36-.7-.66-1.57-1.12-2.51-1.34-2.14-.38-4.33-.42-6.47-.1q-.36.045-.72.12.225-.255.33-.57c.22-.6.08-1.3-.39-1.77l-5.6-5.59c-.67-.66-1.75-.66-2.42 0L1 16.16c-.67.67-.67 1.75 0 2.41l5.59 5.59c.63.62 1.63.66 2.3.1.04-.03.08-.07.12-.1l.24-.25c.11.13.22.25.33.38 1.29 1.49 2.31 3.2 3.02 5.04.81 1.49 1.93 2.79 3.26 3.83.13.1.27.2.4.3-.1.13-.2.26-.28.4-.36.6-.52 1.31-.43 2.01.1.87.57 1.65 1.28 2.17.56.4 1.23.61 1.92.6.18-.01.36-.02.53-.06-.05.17-.09.35-.11.53-.08.56-.01 1.13.22 1.66a3.1 3.1 0 0 0 1.5 1.59c.51.26 1.08.37 1.65.32.18-.01.35-.04.53-.08-.04.17-.07.35-.09.53-.05.73.15 1.46.58 2.07.54.75 1.39 1.23 2.31 1.31.84.07 1.68-.2 2.31-.74.07-.06.13-.11.18-.17l.3-.3a3.2 3.2 0 0 0 .91 2.26c.59.6 1.39.94 2.24.94.84.01 1.65-.32 2.24-.92l2.47-2.46c.1-.09.18-.19.27-.3.63.45 1.42.64 2.19.55.77-.1 1.48-.47 2-1.06.37-.42.61-.93.72-1.47.04-.21.06-.43.05-.65l.43.42.05.05c.72.69 1.72 1 2.7.84a3.17 3.17 0 0 0 2.32-1.72c.37-.74.42-1.59.17-2.37-.06-.17-.13-.34-.22-.51.19.02.38.01.56 0 .74-.08 1.43-.41 1.96-.95.65-.67.97-1.6.87-2.53l3.59-3.58a9.26 9.26 0 0 0 2.68-5.83c.09-1.11.26-2.22.5-3.31.04-.19.09-.38.14-.57l.41.41.08.08c.66.66 1.74.66 2.41 0l5.6-5.58c.66-.67.66-1.75 0-2.41L52.35 1.01c-.33-.33-.78-.51-1.24-.5M36.37 35.55l6.44 6.43c.58.54 1.4.74 2.16.53.77-.21 1.37-.81 1.58-1.57s.01-1.58-.53-2.16l-4.44-4.43a.44.44 0 0 1 .02-.61.44.44 0 0 1 .62-.01l3.63 3.62c.58.56 1.4.77 2.18.56.77-.21 1.37-.81 1.58-1.59.22-.77 0-1.59-.56-2.17L34.93 20.06a.82.82 0 0 0-.57-.24c-.22 0-.43.09-.58.24l-6.16 6.14c-.8.78-1.95 1.08-3.03.79a3.17 3.17 0 0 1-2.22-2.22c-.3-1.08 0-2.23.79-3.03l8.98-8.96a4.67 4.67 0 0 0-2.41-1.46c-.81-.14-1.64-.23-2.47-.27h-.02.01-.01l-.01-.01c-1.91-.08-3.83.12-5.68.6L9.89 23.28c1.51 1.66 2.71 3.58 3.52 5.67a11.54 11.54 0 0 0 3.49 3.86l.4-.4c.59-.59 1.4-.92 2.25-.92.84.01 1.64.35 2.23.95a3.13 3.13 0 0 1 .91 2.25l.47-.48.3-.3a3.22 3.22 0 0 1 2.34-.92c.87.03 1.69.42 2.27 1.07.45.51.72 1.15.78 1.83.01.18.01.36-.01.55a3.23 3.23 0 0 1 2.29-.21c.76.22 1.41.72 1.82 1.39.31.52.47 1.12.46 1.72q-.015.27-.06.54c.17-.06.35-.09.52-.12a3.2 3.2 0 0 1 1.78.28 3.15 3.15 0 0 1 1.58 4c.62.45 1.42.57 2.14.3a2.25 2.25 0 0 0 1.42-1.63 2.25 2.25 0 0 0-.59-2.08l-4.46-4.45a.45.45 0 0 1 .01-.62.45.45 0 0 1 .62-.01m1.46 8.27q.24.12.5.16.42.06.87-.11t.73-.49q.27-.32.37-.78.11-.47-.01-.87-.11-.4-.45-.74l-4.46-4.47-.01-.01q-.31-.33-.3-.66.01-.32.33-.64t.64-.33q.33-.01.66.3l.01.01 6.45 6.43q.36.34.78.44t.9-.03.79-.44q.3-.31.44-.79.13-.47.03-.89t-.44-.78l-4.44-4.43v-.01q-.31-.33-.31-.66.01-.33.33-.65.33-.32.65-.32.33-.01.67.3v.01l3.64 3.62q.36.35.78.46.43.11.91-.02.49-.14.8-.45t.44-.79q.14-.49.02-.91-.1-.42-.45-.77l-14.12-14.1q-.05-.04-.1-.07-.06-.02-.12-.02-.07 0-.13.02-.05.03-.1.07l-6.16 6.15q-.75.73-1.62.96-.88.22-1.89-.05-1.02-.27-1.66-.92-.64-.64-.91-1.64-.28-1.01-.05-1.88.23-.89.96-1.64l8.64-8.62q-.3-.27-.64-.48-.53-.32-1.17-.48-.5-.09-1.01-.15-.69-.08-1.4-.12-1.43-.06-2.84.09-1.3.14-2.57.46L10.57 23.3q1.01 1.15 1.8 2.43.88 1.43 1.5 3.01.6 1.08 1.41 1.98.7.79 1.57 1.44l.09-.1q.54-.54 1.19-.8.65-.27 1.42-.27.76.01 1.42.28.64.28 1.17.82.54.55.8 1.2.06.16.11.33l.06-.06q.56-.56 1.23-.82.68-.27 1.47-.25.79.03 1.45.34.66.3 1.18.9.53.59.75 1.28.11.34.15.71.29-.08.58-.11.66-.05 1.35.14.68.2 1.21.6.52.41.89 1.01.38.61.49 1.27.05.3.05.62.32-.04.64-.02.67.05 1.32.36t1.1.8q.46.49.73 1.16.26.67.26 1.34 0 .47-.13.93m-1.05-23.18-.52-.51c.24.01.48.02.72.01 1.6-.04 3.16-.52 4.5-1.4.19-.15.23-.4.1-.6a.444.444 0 0 0-.58-.15 7.63 7.63 0 0 1-6.2 1c-.59-.16-1.22.01-1.65.44l-6.16 6.14c-.57.56-1.4.77-2.17.56-.77-.22-1.38-.82-1.59-1.59s0-1.59.56-2.17l10.27-10.24c.69-.7 1.58-1.17 2.55-1.36s1.97-.08 2.87.3c.97.41 2.04.52 3.06.31.96-.2 1.85-.67 2.55-1.34.05-.05.1-.1.14-.15l.36.36L56.77 21.4c-.41 1.48-.68 3-.8 4.54a8.34 8.34 0 0 1-2.42 5.27l-2.86 2.84-.37.38a3.3 3.3 0 0 0-.26-.45c-.11-.17-.24-.32-.38-.46zm.68-.02 12.58 12.55q.21.21.38.45l2.77-2.76q1.03-1.04 1.61-2.28.56-1.23.68-2.68.08-1.04.25-2.06.18-1.16.48-2.29L45.23 10.59q-.45.4-.97.68-.74.42-1.62.6-.85.17-1.69.09t-1.66-.42q-.63-.27-1.28-.34-.64-.07-1.31.06-.66.13-1.24.44-.57.3-1.05.78L24.15 22.72q-.35.36-.46.78-.11.43.03.91.13.48.43.79.31.31.8.44.5.14.93.03.41-.11.76-.45l6.16-6.14q.45-.45.98-.6.54-.14 1.15.03 1.56.42 3.01.18 1.44-.23 2.78-1.11l.02-.01.02-.01q.38-.21.69-.14.31.08.55.45.24.36.19.67-.05.32-.4.59l-.01.01-.02.01q-1.25.83-2.63 1.2-.81.21-1.67.27M51.13 1.39c.22 0 .43.09.58.24l13.65 13.62c.15.15.24.36.24.58 0 .21-.09.42-.24.57l-5.59 5.58c-.15.16-.36.24-.58.24s-.42-.08-.58-.24L44.96 8.36a.81.81 0 0 1 0-1.15l5.6-5.58c.15-.15.35-.24.57-.24m.12.52q.06.03.11.07v.01L65.01 15.6q.04.05.07.11.02.05.02.12 0 .06-.02.12-.03.05-.07.1l-5.59 5.58q-.05.05-.11.07-.05.02-.12.02-.06 0-.12-.02t-.1-.07L45.32 8.01q-.05-.05-.07-.1-.03-.06-.03-.12 0-.07.03-.12.02-.06.07-.1l5.59-5.58q.05-.05.11-.08.05-.02.11-.02.07 0 .12.02M15.84 2.93c.22 0 .43.08.59.24l5.59 5.58c.32.32.32.83 0 1.15L8.37 23.52a.82.82 0 0 1-.57.24c-.22 0-.43-.09-.58-.24l-5.59-5.58a.8.8 0 0 1-.24-.58c0-.21.08-.42.24-.57L15.28 3.17c.15-.15.35-.24.56-.24m.23.59h.01l5.59 5.59q.11.11.11.22t-.11.22L8.02 23.17q-.05.04-.1.07-.06.02-.12.02-.07 0-.13-.02-.05-.03-.1-.07l-5.59-5.58q-.05-.05-.07-.11t-.02-.12.02-.11q.02-.06.07-.11L15.63 3.52q.05-.05.1-.07.06-.02.12-.02t.12.02.1.07m3.35 28.86c.62-.03 1.21.2 1.66.62s.7 1 .71 1.61-.23 1.2-.66 1.63l-.84.84c-.58.54-1.4.74-2.16.53-.76-.22-1.36-.81-1.57-1.57-.22-.76-.02-1.58.52-2.16l.84-.84c.4-.4.94-.63 1.5-.66m.52 4.34.84-.83q.26-.27.39-.59.13-.31.12-.68 0-.37-.14-.69-.14-.31-.41-.57t-.6-.37q-.32-.13-.69-.11-.35.02-.64.15-.29.12-.54.37l-.83.83q-.33.36-.43.78t.03.89q.13.48.44.78.3.31.78.44.48.14.91.04.41-.11.77-.44m5.79-2.8c.58.02 1.14.26 1.55.68s.64.98.64 1.57c.01.58-.22 1.15-.62 1.57l-3.4 3.4c-.58.54-1.4.73-2.16.52a2.26 2.26 0 0 1-1.04-3.72l3.39-3.4c.44-.41 1.03-.64 1.64-.62m-1.29.98-3.39 3.39q-.33.36-.43.77-.1.42.03.9.13.47.44.78.3.3.79.44.47.13.9.03.41-.1.77-.43l3.39-3.39q.25-.26.37-.56.12-.31.11-.66 0-.35-.12-.65-.13-.31-.38-.57-.25-.25-.55-.38-.3-.14-.66-.15-.37-.01-.69.11-.31.12-.58.37m5.85 2.13c.59.02 1.15.27 1.55.69.41.42.64.98.64 1.57s-.22 1.15-.63 1.57l-2.26 2.26-1.85 1.85c-.58.57-1.41.79-2.19.58-.79-.21-1.4-.82-1.61-1.6s.01-1.61.59-2.19l4.12-4.1a2.27 2.27 0 0 1 1.64-.63m.64.65q.31.13.56.39t.37.56q.12.31.12.66t-.12.66-.37.56l-2.25 2.25-1.86 1.85q-.36.36-.78.48-.43.11-.93-.02-.49-.13-.81-.45-.31-.31-.44-.8t-.02-.91q.12-.43.48-.79L29 38.01q.25-.24.56-.36.33-.13.72-.12.35.01.65.15m3.39 2.98c.59.02 1.14.27 1.55.69s.64.98.64 1.56c.01.59-.22 1.15-.62 1.58l-2.46 2.46c-.58.56-1.41.78-2.19.57s-1.39-.82-1.6-1.59c-.21-.78.01-1.61.58-2.18l2.46-2.46a2.27 2.27 0 0 1 1.64-.63m-1.29.99-2.46 2.45q-.35.36-.47.79-.11.42.03.91.13.48.44.79.31.32.8.45.5.13.93.02.42-.11.77-.47l2.46-2.45q.24-.26.36-.56.13-.31.12-.66 0-.36-.12-.66-.12-.31-.38-.56-.24-.26-.54-.39-.31-.14-.67-.15t-.68.11-.59.38"/></g></svg>