<svg xmlns="http://www.w3.org/2000/svg" width="49.102814" height="48.595032" fill="none" viewBox="0 0 49.1028 48.595"><g opacity="0.900000"><rect width="47.000000" height="47.000000" rx="0.000000" transform="translate(.985 .9)"/><path stroke="#B01736" stroke-opacity="1.000000" stroke-width="2.000000" d="M41.48 11.2a4 4 0 0 1 3.99 3.63l2.61 28.39a4.005 4.005 0 0 1-3.99 4.37H5c-2.4 0-4.26-2.1-3.97-4.49l3.48-28.39a3.997 3.997 0 0 1 3.97-3.51z"/><path stroke="#B01736" stroke-linecap="round" stroke-opacity="1.000000" stroke-width="2.000000" d="M24.48 20.03v18.72m-9.85-9.36h19.69"/><path stroke="#B01736" stroke-opacity="1.000000" stroke-width="2.000000" d="M14.88 11.2V5c0-2.21 1.79-4 4-4h11.2c2.21 0 4 1.79 4 4v6.2"/></g></svg>