<svg xmlns="http://www.w3.org/2000/svg" width="48.000336" height="48.000122" fill="none" viewBox="0 0 48.0003 48.0001"><rect width="9.000000" height="9.000000" x="26.937576" y="27.894531" stroke="#B01736" stroke-opacity="1.000000" stroke-width="2.000000" rx="1.000000"/><path stroke="#B01736" stroke-opacity="1.000000" stroke-width="2.000000" d="M39.93 21.23V46c0 .55-.45 1-1 1H9.14c-.55 0-1-.45-1-1V21.23m5 25.77V28.89c0-.55.45-1 1-1h7c.56 0 1 .45 1 1V47M2.44 21c-1.35 0-1.96-1.66-.92-2.5L22.79 1.32c.52-.43 1.29-.43 1.82-.01l21.84 17.18c1.07.83.46 2.51-.9 2.51z"/></svg>