<svg xmlns="http://www.w3.org/2000/svg" width="125.000000" height="25.000000" fill="none" viewBox="0 0 125 25"><defs><clipPath id="a"><rect width="124.000000" height="24.000000" fill="#fff" fill-opacity="0" rx="0.000000" transform="translate(.5 .5)"/></clipPath></defs><rect width="124.000000" height="24.000000" rx="0.000000" transform="translate(.5 .5)"/><g fill-opacity="1.000000" clip-path="url(#a)"><path fill="#B1B1B1" d="M70.81.39h-6.53v23.67h6.53zm9.39 6.56h-6.6v17.19h6.6zm0-6.56h-6.6v4.53h6.6z"/><path fill="#B01736" d="m0 19.37 6.52-.62c.23.78.62 1.32 1.08 1.64.47.31 2.1.62 2.95.62.86 0 .55-.31 1.01-.62.39-.32.55-.63.55-1.02 0-.47-.24-.86-.78-1.09-.39-.16-1.32-.39-2.79-.71-2.26-.39-3.89-.78-4.74-1.09s-1.63-.94-2.25-1.72-.93-1.72-.93-2.73c0-1.18.31-2.11 1.01-2.89.62-.79 1.55-1.41 2.71-1.88 1.17-.39 2.72-.62 4.58-.62 2.02 0 3.58.15 4.51.46 1.01.32 1.78.79 2.4 1.41.62.63 1.17 1.56 1.63 2.66l-6.21.62c-.15-.54-.39-.94-.77-1.25-.55-.31-1.09-.54-1.87-.54-.7 0-1.24.15-1.63.39-.31.23-.46.54-.46.93s.23.71.62.94c.39.24 1.4.39 2.79.63 2.18.23 3.81.62 4.82 1.01 1.08.47 1.86 1.1 2.4 1.88.55.78.86 1.72.86 2.73 0 1.02-.31 1.95-.86 2.89-.62.94-1.55 1.72-2.79 2.27-1.24.54-3.03.86-5.2.86-3.11 0-5.36-.47-6.68-1.33-1.24-.94-2.1-2.19-2.48-3.83m21.89 3.05c1.71 1.4 3.88 2.11 6.68 2.11 3.1 0 5.51-.86 7.22-2.5 1.71-1.72 2.64-3.83 2.64-6.49 0-2.34-.7-4.29-2.1-5.94-1.71-2.03-4.35-2.96-7.76-2.96-3.03 0-5.36.86-7.15 2.57-1.78 1.72-2.64 3.83-2.64 6.49 0 2.65 1.09 4.92 3.11 6.72m4.43-10.32c.62-.78 1.39-1.09 2.4-1.09.93 0 1.63.39 2.25 1.09.62.71.94 1.88.94 3.36 0 1.64-.32 2.82-.94 3.52s-1.39 1.09-2.33 1.09c-.93 0-1.7-.39-2.32-1.09-.63-.78-.94-1.88-.94-3.44s.31-2.73.94-3.44M47.2 6.95h3.11v4.84H47.2v12.35h-6.6V11.79h-2.48V6.95h2.48v-.78c0-.71.08-1.49.24-2.35.15-.86.46-1.56.85-2.03A5.3 5.3 0 0 1 43.48.46C44.25.15 45.34 0 46.74 0c1.16 0 2.79.15 5.04.39l-.77 3.98c-.78-.16-1.4-.16-1.94-.16-.62 0-1.01.08-1.24.32-.24.15-.39.47-.47.86-.08.23-.16.78-.16 1.56"/><path fill="#B01736" d="M59 11.79v6.1c0 .7.08 1.25.23 1.48.24.39.63.55 1.09.55.47 0 1.17-.16 2.02-.39l.47 4.53c-1.63.39-3.11.54-4.51.54-1.63 0-2.79-.23-3.57-.62-.77-.39-1.32-1.09-1.71-1.95-.38-.86-.54-2.27-.54-4.14v-6.02h-2.41V6.95h2.41V3.82L59 .39z"/><path fill="#B1B1B1" d="M82.68 6.95h6.14v2.81c.93-1.17 1.86-1.95 2.79-2.42s2.1-.7 3.42-.7c1.78 0 3.26.54 4.27 1.64 1.01 1.09 1.55 2.73 1.55 5v10.93h-6.6v-9.53c0-1.09-.23-1.87-.62-2.26-.39-.47-.93-.71-1.71-.71s-1.4.32-1.94.94c-.47.63-.78 1.72-.78 3.28v8.28h-6.6V6.95zm39.29 9.45c0-2.26-.39-4.14-1.09-5.55-.78-1.4-1.79-2.5-3.26-3.28-1.4-.78-3.34-1.09-5.75-1.09-3.03 0-5.35.86-7.06 2.5s-2.56 3.83-2.56 6.48c0 1.88.38 3.52 1.24 4.93.85 1.4 1.94 2.42 3.18 3.04 1.32.63 3.11.94 5.36.94 2.56 0 4.58-.39 5.98-1.09 1.39-.78 2.56-1.96 3.57-3.68l-6.45-.62c-.38.55-.77.86-1.16 1.09-.54.32-1.17.47-1.79.47-1.01 0-1.78-.39-2.48-1.09-.47-.55-.7-1.33-.86-2.35h13.05v-.7zm-13.05-2.34c.08-1.02.39-1.8.78-2.35.62-.86 1.47-1.25 2.48-1.25.94 0 1.63.32 2.18.86.54.55.85 1.49 1.01 2.74zM30.04 2.65c7.46.78 10.48 1.48 17.47 3.36 5.82 1.56 15.06.86 15.06.86v4.84c-3.65.47-11.49.32-18.01-2.11-11.72-4.22-17-5.07-23.21-5.54-8.54-.63-18.64.7-18.64.7l-.07-.86s14.59-2.58 27.4-1.25m91.7.94h.31c.46 0 .54-.24.54-.39 0-.31-.46-.31-.54-.31h-.31zm.54-1.25c.7 0 1.01.39 1.01.78s-.31.63-.62.7c.15.08.31.24.31.32l.46 1.17h-.77l-.39-.94c0-.08-.15-.23-.39-.23h-.15v1.17h-.78V2.34zm-.23 3.75c1.24 0 2.25-1.02 2.25-2.27s-1.01-2.26-2.25-2.26-2.25 1.01-2.25 2.26 1.01 2.27 2.25 2.27m0-5.24A2.96 2.96 0 0 1 125 3.82a2.96 2.96 0 0 1-2.95 2.97 2.96 2.96 0 0 1-2.95-2.97c.07-1.64 1.32-2.97 2.95-2.97"/></g></svg>